<?xml version="1.0" encoding="UTF-8"?>
<svg version="1.1" xmlns="http://www.w3.org/2000/svg" width="1280" height="1280">
<path d="M0 0 C422.4 0 844.8 0 1280 0 C1280 422.4 1280 844.8 1280 1280 C857.6 1280 435.2 1280 0 1280 C0 857.6 0 435.2 0 0 Z " fill="#FEFEFE" transform="translate(0,0)"/>
<path d="M0 0 C0.88897545 -0.00235223 1.7779509 -0.00470446 2.693865 -0.00712797 C5.70605218 -0.01384407 8.71819649 -0.01335896 11.73039055 -0.01294994 C13.89860884 -0.01624699 16.06682652 -0.01997221 18.23504341 -0.02409142 C24.21966677 -0.03413844 30.20428011 -0.03783257 36.18891072 -0.04048073 C42.63369059 -0.04437601 49.07846245 -0.05395513 55.52323723 -0.0626936 C70.36748187 -0.08183118 85.21172774 -0.09171946 100.05598174 -0.10015428 C107.3926331 -0.10435946 114.72928363 -0.10958176 122.0659343 -0.11483881 C147.18257024 -0.13273453 172.29920641 -0.14772857 197.41584778 -0.155159 C198.99342708 -0.15563375 200.57100637 -0.15610964 202.14858567 -0.15658666 C202.93092693 -0.15682303 203.71326819 -0.15705941 204.51931676 -0.15730295 C208.48305645 -0.15850415 212.44679613 -0.1597196 216.41053581 -0.16094494 C217.19715484 -0.16118509 217.98377386 -0.16142524 218.79422983 -0.16167267 C244.27800496 -0.16955936 269.76173346 -0.19297534 295.24548824 -0.22550088 C322.19004387 -0.259828 349.13457223 -0.27951303 376.07915008 -0.28280324 C379.0395558 -0.28322077 381.9999615 -0.28370033 384.9603672 -0.28422642 C385.68929889 -0.28434961 386.41823057 -0.2844728 387.1692511 -0.28459973 C398.88376291 -0.28692868 410.59822049 -0.30257219 422.312713 -0.32306826 C434.09958732 -0.3433629 445.88639116 -0.34845408 457.67327978 -0.33929763 C464.05493208 -0.33475534 470.43640885 -0.33663529 476.81803703 -0.35605907 C482.66746452 -0.37370872 488.51658868 -0.37267801 494.36601947 -0.35716178 C496.4752516 -0.35478843 498.58450482 -0.35909495 500.69370474 -0.37099043 C520.98758975 -0.47829678 539.0581618 2.51326273 555.55262566 15.13422108 C556.41243034 15.78906483 557.27223503 16.44390858 558.15809441 17.11859608 C560.66661807 19.07683845 563.12117038 21.08126646 565.55262566 23.13422108 C566.18039909 23.66402576 566.80817253 24.19383045 567.45496941 24.73968983 C575.38134212 32.01901171 580.67939706 42.19702372 584.55262566 52.13422108 C584.88907097 52.93730701 585.22551628 53.74039295 585.57215691 54.56781483 C591.735006 70.10188764 591.98784706 85.63397878 591.93357658 102.08786488 C591.93703843 104.38666406 591.94180651 106.68546158 591.94775832 108.98425567 C591.96022458 115.26444156 591.95411795 121.54448981 591.94479966 127.82467604 C591.93869226 133.91308836 591.94671553 140.00146836 591.95424176 146.08987632 C591.96999457 159.29932894 591.96868814 172.50873788 591.96000502 185.7181946 C591.95244769 197.27201428 591.95049326 208.82581798 591.95407295 220.37963963 C591.95441669 221.53081745 591.95441669 221.53081745 591.95476736 222.70525138 C591.95570141 225.82075865 591.95665662 228.9362659 591.95764665 232.05177315 C591.96681301 261.24492779 591.95851851 290.43805465 591.94235596 319.631205 C591.92810604 345.56712104 591.92940619 371.50299291 591.94373894 397.43890858 C591.95979747 426.59498773 591.96617707 455.7510424 591.95690215 484.90712535 C591.95594001 488.01373696 591.95500149 491.12034857 591.95407295 494.22696018 C591.9537171 495.37431014 591.9537171 495.37431014 591.95335407 496.54483889 C591.94994085 508.09828189 591.95393366 519.65170719 591.96151161 531.20514774 C591.97007964 544.33333675 591.96796503 557.46147538 591.95166938 570.5896581 C591.94362683 577.29012617 591.94072387 583.99049314 591.95061684 590.69096661 C591.95952856 596.81930591 591.95468914 602.94747169 591.93868418 609.07579516 C591.93532159 611.2974799 591.9370634 613.51917917 591.94431154 615.74085464 C591.95338437 618.75177609 591.94412775 621.76209674 591.93014908 624.77298641 C591.93717258 625.64306249 591.94419608 626.51313857 591.95143241 627.40958059 C591.89660126 633.28601302 590.95916779 637.67733288 586.68543816 642.04047108 C586.02286003 642.56640858 585.36028191 643.09234608 584.67762566 643.63422108 C582.15247697 645.72779889 580.17146607 647.59161259 578.05262566 650.13422108 C575.4565156 653.24955315 572.67819725 655.7181261 569.60340691 658.34125233 C566.4283726 661.11713946 563.50049663 664.12132353 560.55262566 667.13422108 C558.88595899 668.80088774 557.21929232 670.46755441 555.55262566 672.13422108 C554.46981316 673.27890858 554.46981316 673.27890858 553.36512566 674.44672108 C551.55262566 676.13422108 551.55262566 676.13422108 549.55262566 676.13422108 C549.30512566 676.69109608 549.05762566 677.24797108 548.80262566 677.82172108 C546.1439853 682.74020574 542.51747679 686.12712857 538.28700066 689.66156483 C535.04390838 692.41527156 532.1690085 695.34448056 529.55262566 698.69672108 C527.55262566 701.13422108 527.55262566 701.13422108 524.86512566 703.25922108 C522.30014777 704.99543085 522.30014777 704.99543085 521.55262566 708.13422108 C519.86637076 710.15772695 518.37860666 711.22993153 516.05262566 712.50922108 C513.18917941 714.37046113 512.21420788 716.20667145 510.55262566 719.13422108 C509.89262566 719.13422108 509.23262566 719.13422108 508.55262566 719.13422108 C508.22262566 720.12422108 507.89262566 721.11422108 507.55262566 722.13422108 C506.89262566 722.13422108 506.23262566 722.13422108 505.55262566 722.13422108 C505.55262566 722.79422108 505.55262566 723.45422108 505.55262566 724.13422108 C504.19137566 725.03140858 504.19137566 725.03140858 502.80262566 725.94672108 C499.54855445 728.13696131 497.96012098 730.08944757 495.55262566 733.13422108 C493.61963564 734.90577456 491.63134998 736.6022263 489.63856316 738.30609608 C486.4538896 741.09715829 483.51603712 744.11256074 480.55262566 747.13422108 C479.68637566 747.97984608 478.82012566 748.82547108 477.92762566 749.69672108 C475.46071276 752.15542461 475.46071276 752.15542461 473.11512566 755.13422108 C470.48511334 758.21325989 467.69012225 760.58500509 464.55262566 763.13422108 C461.8654159 765.69034743 459.45514101 768.25420217 457.11512566 771.13422108 C454.48511334 774.21325989 451.69012225 776.58500509 448.55262566 779.13422108 C445.69179848 781.8520069 443.07960636 784.67336916 440.55262566 787.69672108 C438.1206742 790.57649991 435.54707957 792.83079499 432.55262566 795.13422108 C429.77972856 797.76847332 427.25468192 800.46853511 424.86512566 803.44672108 C424.10200066 804.33359608 423.33887566 805.22047108 422.55262566 806.13422108 C421.89262566 806.13422108 421.23262566 806.13422108 420.55262566 806.13422108 C420.55262566 806.79422108 420.55262566 807.45422108 420.55262566 808.13422108 C419.89262566 808.46422108 419.23262566 808.79422108 418.55262566 809.13422108 C418.22262566 810.12422108 417.89262566 811.11422108 417.55262566 812.13422108 C415.88075066 813.56390858 415.88075066 813.56390858 413.80262566 815.00922108 C407.99090668 819.21520665 401.8163872 824.60669799 398.55262566 831.13422108 C397.89262566 831.13422108 397.23262566 831.13422108 396.55262566 831.13422108 C396.22262566 832.12422108 395.89262566 833.11422108 395.55262566 834.13422108 C394.83075066 834.36109608 394.10887566 834.58797108 393.36512566 834.82172108 C389.8021528 836.48444175 388.65062203 838.53832835 386.43543816 841.70453358 C383.31189667 845.73532778 379.59876251 849.17559945 375.94325066 852.71625233 C373.44448315 855.0900197 373.44448315 855.0900197 371.55262566 858.13422108 C366.92729168 859.82258166 362.80704739 860.38491279 357.9067688 860.38869667 C356.60255859 860.39452886 355.29834839 860.40036106 353.95461667 860.40636998 C352.51935982 860.4027373 351.08410346 860.39891295 349.64884758 860.39491749 C348.1147928 860.3979395 346.58073953 860.40182923 345.04668891 860.40651006 C340.8384684 860.4167924 336.63033306 860.41460763 332.42210555 860.41032946 C327.88076404 860.40786267 323.33944305 860.41687582 318.79810905 860.42436695 C309.90392103 860.43711729 301.0097632 860.43890722 292.11556758 860.43656669 C284.88611667 860.43478374 277.65667493 860.43653267 270.42722511 860.44079113 C269.39833767 860.44138632 268.36945022 860.44198151 267.30938437 860.44259473 C265.21920269 860.44380648 263.129021 860.44502062 261.03883933 860.44623711 C241.43632024 860.45711395 221.83381836 860.45494948 202.23129831 860.44885226 C184.29965735 860.44368302 166.3680707 860.45493851 148.43644048 860.47395048 C130.0226182 860.49332398 111.60882163 860.50158574 93.19498909 860.49782723 C82.85768209 860.49591444 72.52042132 860.49841034 62.18312263 860.51254177 C53.38285164 860.52445031 44.58265535 860.52586636 35.78238334 860.5137516 C31.29318045 860.50785923 26.80411424 860.50677343 22.31492043 860.51875401 C18.20300147 860.52960013 14.09133352 860.52652461 9.97942637 860.51249232 C8.49429027 860.50984189 7.00913459 860.51222282 5.52401771 860.52022818 C-2.45157052 860.56022554 -9.0423694 860.21201955 -16.44737434 857.13422108 C-16.44737434 856.47422108 -16.44737434 855.81422108 -16.44737434 855.13422108 C-17.60237434 855.13422108 -18.75737434 855.13422108 -19.94737434 855.13422108 C-31.62001342 853.82496772 -43.03238573 845.84535377 -51.44737434 838.13422108 C-52.07901497 837.57090076 -52.71065559 837.00758045 -53.36143684 836.42718983 C-58.18836997 831.887321 -61.83394383 826.66310434 -65.44737434 821.13422108 C-65.96299934 820.37496326 -66.47862434 819.61570545 -67.00987434 818.83343983 C-70.25126737 813.81096886 -72.58670859 808.64097544 -74.69737434 803.07172108 C-74.94366585 802.42316151 -75.18995735 801.77460194 -75.44371223 801.10638905 C-78.74739487 792.01584124 -79.74030486 783.61766052 -79.70464325 773.95750237 C-79.70814932 772.75038844 -79.7116554 771.54327451 -79.71526772 770.29958138 C-79.72295583 766.95588902 -79.72173693 763.61241732 -79.71671217 760.26873436 C-79.71343758 756.6282763 -79.72173472 752.98784125 -79.72853053 749.34739059 C-79.73882788 742.96902844 -79.74167478 736.59069664 -79.7396183 730.212327 C-79.73656758 720.72699201 -79.74489397 711.2416906 -79.75536755 701.75636213 C-79.7747107 683.82795728 -79.78033592 665.89956387 -79.78148167 647.97114981 C-79.78240085 634.12330803 -79.78651802 620.27547074 -79.79288292 606.42763042 C-79.79467803 602.44109581 -79.79645765 598.4545612 -79.79823267 594.46802658 C-79.79867477 593.47694392 -79.79911687 592.48586127 -79.79957236 591.46474581 C-79.8118814 563.5857779 -79.81977344 535.70681155 -79.8188858 507.82784081 C-79.81885465 506.77669238 -79.81882349 505.72554395 -79.81879139 504.64254254 C-79.81862517 499.31494021 -79.81842709 493.98733789 -79.81822197 488.65973557 C-79.81818208 487.60166514 -79.81814219 486.5435947 -79.81810109 485.45346153 C-79.81802022 483.31378363 -79.81793662 481.17410572 -79.81785031 479.03442782 C-79.81662519 445.75525614 -79.83163046 412.47612523 -79.85899544 379.19696522 C-79.88973184 341.80238737 -79.90692694 304.40783632 -79.90506899 267.01324505 C-79.90491973 263.02388124 -79.90482232 259.03451743 -79.90476036 255.04515362 C-79.90473705 254.06288259 -79.90471374 253.08061157 -79.90468973 252.06857475 C-79.90462824 236.27567388 -79.91738869 220.48280847 -79.93462489 204.68991813 C-79.95159777 188.80950811 -79.9535423 172.92914983 -79.94040625 157.04873575 C-79.93302772 147.62093927 -79.93664214 138.19330022 -79.95629093 128.76552049 C-79.96832189 122.45855954 -79.96566535 116.15171216 -79.95134993 109.84475633 C-79.94361302 106.2573439 -79.94195875 102.67023527 -79.95826463 99.08284468 C-80.03467707 81.10416405 -79.98012698 63.30017913 -71.50987434 46.94672108 C-71.18825325 46.27576405 -70.86663216 45.60480701 -70.53526497 44.91351795 C-68.263781 40.30334634 -65.62843409 36.17474342 -62.44737434 32.13422108 C-61.78737434 32.13422108 -61.12737434 32.13422108 -60.44737434 32.13422108 C-60.0896595 31.0456078 -60.0896595 31.0456078 -59.72471809 29.93500233 C-58.2566343 26.71599292 -56.51777311 24.80491148 -54.00987434 22.32172108 C-53.22741341 21.53152576 -52.44495247 20.74133045 -51.63878059 19.92718983 C-49.44737434 18.13422108 -49.44737434 18.13422108 -46.44737434 18.13422108 C-46.44737434 17.47422108 -46.44737434 16.81422108 -46.44737434 16.13422108 C-45.78737434 16.13422108 -45.12737434 16.13422108 -44.44737434 16.13422108 C-44.44737434 15.47422108 -44.44737434 14.81422108 -44.44737434 14.13422108 C-40.38888251 11.34400794 -35.8734166 9.27507847 -31.44737434 7.13422108 C-30.75643684 6.77972889 -30.06549934 6.4252367 -29.35362434 6.06000233 C-23.98100685 3.4418246 -18.86482897 2.33686175 -12.95128059 1.52875233 C-3.21286918 -0.00569315 -3.21286918 -0.00569315 0 0 Z " fill="#74AFF8" transform="translate(384.44737434387207,210.86577892303467)"/>
<path d="M0 0 C0.33 0 0.66 0 1 0 C1.05134338 52.82729426 1.09910675 105.65459069 1.12702942 158.48190308 C1.12744359 159.26347907 1.12785776 160.04505506 1.12828448 160.85031518 C1.13726273 177.83513249 1.14557334 194.81995006 1.15319599 211.80476803 C1.15693807 220.13384281 1.16082772 228.46291752 1.16479492 236.79199219 C1.1651872 237.62084533 1.16557948 238.44969847 1.16598364 239.30366837 C1.1787729 266.18024404 1.20131071 293.05680082 1.22889166 319.93336504 C1.25717787 347.54725736 1.27565364 375.16113922 1.28174497 402.77504578 C1.28260946 406.67327146 1.28358637 410.57149711 1.28463173 414.46972275 C1.284834 415.23696673 1.28503627 416.00421071 1.28524467 416.7947045 C1.28879297 429.15659601 1.30271564 441.51845522 1.3204961 453.88033355 C1.33814095 466.30130432 1.34490818 478.72224299 1.34050413 491.14322586 C1.33842003 497.87599388 1.34159801 504.60866123 1.35761642 511.3414135 C1.37216229 517.49998558 1.37298697 523.65839836 1.36269668 529.81697761 C1.36142394 532.04991262 1.3652743 534.28285738 1.37464955 536.51577307 C1.3866214 539.54206983 1.38024086 542.56778523 1.36914349 545.59407234 C1.37702453 546.46872198 1.38490557 547.34337162 1.39302543 548.24452579 C1.34393506 554.1354046 0.41805764 558.53135538 -3.8671875 562.90625 C-4.52976562 563.4321875 -5.19234375 563.958125 -5.875 564.5 C-8.40014868 566.59357782 -10.38115959 568.45739151 -12.5 571 C-15.09611006 574.11533207 -17.8744284 576.58390502 -20.94921875 579.20703125 C-24.12425305 581.98291838 -27.05212902 584.98710246 -30 588 C-31.66666667 589.66666667 -33.33333333 591.33333333 -35 593 C-36.0828125 594.1446875 -36.0828125 594.1446875 -37.1875 595.3125 C-39 597 -39 597 -41 597 C-41.2475 597.556875 -41.495 598.11375 -41.75 598.6875 C-44.40864036 603.60598467 -48.03514887 606.99290749 -52.265625 610.52734375 C-55.50871728 613.28105048 -58.38361716 616.21025948 -61 619.5625 C-63 622 -63 622 -65.6875 624.125 C-68.25247789 625.86120977 -68.25247789 625.86120977 -69 629 C-70.6862549 631.02350588 -72.174019 632.09571045 -74.5 633.375 C-77.36344624 635.23624006 -78.33841778 637.07245037 -80 640 C-80.66 640 -81.32 640 -82 640 C-82.33 640.99 -82.66 641.98 -83 643 C-83.66 643 -84.32 643 -85 643 C-85 643.66 -85 644.32 -85 645 C-86.36125 645.8971875 -86.36125 645.8971875 -87.75 646.8125 C-91.00407121 649.00274024 -92.59250467 650.9552265 -95 654 C-96.93299001 655.77155348 -98.92127568 657.46800523 -100.9140625 659.171875 C-104.09873605 661.96293721 -107.03658854 664.97833966 -110 668 C-110.86625 668.845625 -111.7325 669.69125 -112.625 670.5625 C-115.09191289 673.02120353 -115.09191289 673.02120353 -117.4375 676 C-120.06751232 679.07903881 -122.8625034 681.45078401 -126 684 C-128.68720976 686.55612636 -131.09748464 689.1199811 -133.4375 692 C-136.06751232 695.07903881 -138.8625034 697.45078401 -142 700 C-144.86082718 702.71778582 -147.47301929 705.53914808 -150 708.5625 C-152.43195146 711.44227883 -155.00554608 713.69657391 -158 716 C-160.77289709 718.63425224 -163.29794373 721.33431403 -165.6875 724.3125 C-166.450625 725.199375 -167.21375 726.08625 -168 727 C-168.66 727 -169.32 727 -170 727 C-170 727.66 -170 728.32 -170 729 C-170.66 729.33 -171.32 729.66 -172 730 C-172.33 730.99 -172.66 731.98 -173 733 C-174.671875 734.4296875 -174.671875 734.4296875 -176.75 735.875 C-182.56171898 740.08098557 -188.73623846 745.47247692 -192 752 C-192.66 752 -193.32 752 -194 752 C-194.33 752.99 -194.66 753.98 -195 755 C-195.721875 755.226875 -196.44375 755.45375 -197.1875 755.6875 C-200.75047286 757.35022067 -201.90200362 759.40410728 -204.1171875 762.5703125 C-207.24072899 766.60110671 -210.95386315 770.04137838 -214.609375 773.58203125 C-217.1081425 775.95579862 -217.1081425 775.95579862 -219 779 C-223.62533397 780.68836058 -227.74557827 781.25069171 -232.64585686 781.25447559 C-233.95006706 781.26030779 -235.25427727 781.26613998 -236.59800899 781.27214891 C-238.03326583 781.26851622 -239.4685222 781.26469188 -240.90377808 781.26069641 C-242.43783285 781.26371842 -243.97188613 781.26760816 -245.50593674 781.27228898 C-249.71415726 781.28257132 -253.9222926 781.28038655 -258.13052011 781.27610838 C-262.67186162 781.27364159 -267.2131826 781.28265474 -271.7545166 781.29014587 C-280.64870462 781.30289621 -289.54286246 781.30468615 -298.43705808 781.30234561 C-305.66650899 781.30056266 -312.89595073 781.3023116 -320.12540054 781.30657005 C-321.15428799 781.30716524 -322.18317543 781.30776043 -323.24324129 781.30837366 C-325.33342297 781.30958541 -327.42360465 781.31079954 -329.51378633 781.31201603 C-349.11630541 781.32289287 -368.71880729 781.3207284 -388.32132734 781.31463119 C-406.25296831 781.30946194 -424.18455495 781.32071743 -442.11618517 781.33972941 C-460.53000745 781.35910291 -478.94380403 781.36736466 -497.35763657 781.36360615 C-507.69494357 781.36169337 -518.03220433 781.36418926 -528.36950302 781.37832069 C-537.16977401 781.39022923 -545.96997031 781.39164529 -554.77024232 781.37953053 C-559.2594452 781.37363815 -563.74851142 781.37255235 -568.23770523 781.38453293 C-572.34962418 781.39537905 -576.46129214 781.39230354 -580.57319929 781.37827124 C-582.05833538 781.37562081 -583.54349107 781.37800174 -585.02860795 781.38600711 C-593.00419618 781.42600446 -599.59499506 781.07779847 -607 778 C-603.59015228 776.9980493 -601.06692576 777.22946053 -597.5527668 777.73186481 C-591.76549446 778.33974304 -585.91875975 778.15451737 -580.10522461 778.15821838 C-578.58451712 778.16278892 -577.06381088 778.16778966 -575.54310608 778.17318195 C-571.376806 778.18671652 -567.21051406 778.1941678 -563.0441978 778.20060861 C-558.54667256 778.2086332 -554.04916412 778.22232386 -549.551651 778.23532104 C-541.76352465 778.25705464 -533.97539659 778.2752105 -526.18725586 778.29092598 C-514.92695638 778.31365303 -503.66667552 778.34179191 -492.40639186 778.37124526 C-474.13665879 778.41888643 -455.8669181 778.46216002 -437.59716797 778.50268555 C-419.85139371 778.54205816 -402.10562621 778.58348862 -384.35986328 778.62768555 C-383.26573769 778.63040982 -382.1716121 778.63313409 -381.04433119 778.63594092 C-375.55534203 778.64962069 -370.06635298 778.6633409 -364.57736397 778.67708123 C-319.0515901 778.79099141 -273.52580159 778.89781282 -228 779 C-228.00276538 778.16161748 -228.00553076 777.32323496 -228.00837994 776.45944691 C-228.07476237 756.01751099 -228.12434011 735.57559377 -228.15543652 715.13357258 C-228.17087593 705.24778168 -228.19190927 695.36206293 -228.22631836 685.47631836 C-228.25631055 676.85540773 -228.27559624 668.23454939 -228.28226548 659.61358804 C-228.28616116 655.05293215 -228.29525497 650.49242577 -228.31719017 645.93181801 C-228.33771081 641.63003624 -228.34380267 637.3284641 -228.33932304 633.02663803 C-228.34014133 631.45661844 -228.34601353 629.88659108 -228.35761642 628.31661415 C-228.525869 604.35399744 -220.57431595 583.58589392 -204 566 C-203.34 566 -202.68 566 -202 566 C-202 565.34 -202 564.68 -202 564 C-197.76426538 559.75073268 -192.19204967 556.79206623 -187 553.875 C-185.865625 553.23304688 -184.73125 552.59109375 -183.5625 551.9296875 C-127.17875758 528.08245398 -61.21941649 546 0 546 C0 365.82 0 185.64 0 0 Z " fill="#B5D2F8" transform="translate(975,290)"/>
<path d="M0 0 C0 3.68307838 -0.92258558 4.49805711 -3.0625 7.4375 C-6.58893067 12.79537634 -8.7833075 18.25974392 -10.875 24.3125 C-11.172854 25.17222412 -11.47070801 26.03194824 -11.77758789 26.91772461 C-14.03651745 33.6656116 -15.12011972 39.83390207 -15.15821838 46.98556519 C-15.16561287 48.00149498 -15.16561287 48.00149498 -15.17315674 49.03794861 C-15.18846078 51.30117552 -15.19687408 53.56437459 -15.20532227 55.82763672 C-15.21504366 57.48040066 -15.22518946 59.13316214 -15.23572445 60.7859211 C-15.26272302 65.20484522 -15.28392645 69.62377922 -15.30391693 74.04273987 C-15.32356902 78.19200718 -15.34846418 82.34123664 -15.3729248 86.49047852 C-15.44137574 98.6186238 -15.50142642 110.74681532 -15.5625 122.875 C-15.706875 149.97625 -15.85125 177.0775 -16 205 C-84.64 205 -153.28 205 -224 205 C-222.35 203.35 -220.7 201.7 -219 200 C-218.35417969 199.34257813 -217.70835937 198.68515625 -217.04296875 198.0078125 C-213.19979005 194.10799748 -209.2595873 190.40280439 -205.11328125 186.828125 C-198.15851606 180.81180317 -191.42218801 174.55063369 -184.67700195 168.30200195 C-181.21867993 165.10510926 -177.71049529 161.97954234 -174.1484375 158.8984375 C-170.68573391 155.83866669 -167.30936359 152.6858645 -163.92016602 149.54516602 C-159.82287931 145.75098736 -155.68580657 142.00445872 -151.52734375 138.27734375 C-148.14922953 135.23338611 -144.80193996 132.15623667 -141.45410156 129.07910156 C-138.38414632 126.26023531 -135.294845 123.46504387 -132.1875 120.6875 C-127.86097432 116.80830492 -123.61518435 112.84786045 -119.375 108.875 C-104.83550817 95.27850272 -104.83550817 95.27850272 -101 94 C-101 93.34 -101 92.68 -101 92 C-100.34 92 -99.68 92 -99 92 C-99 91.34 -99 90.68 -99 90 C-97.3623728 88.54597658 -95.66265804 87.16151322 -93.9375 85.8125 C-89.93859387 82.61644331 -86.23860443 79.36576981 -82.68359375 75.69140625 C-78.81677028 71.80663929 -74.60931779 68.27248384 -70.3125 64.875 C-67.93534492 63.01395545 -67.93534492 63.01395545 -65.73046875 60.73046875 C-62.88835461 57.88835461 -59.96165743 55.15321916 -57 52.4375 C-55.84501877 51.37503622 -54.69007182 50.31253516 -53.53515625 49.25 C-52.94879395 48.71117187 -52.36243164 48.17234375 -51.75830078 47.6171875 C-49.52073421 45.55919792 -47.28793748 43.49608071 -45.05541992 41.43261719 C-42.37216887 38.95302922 -39.68625137 36.47633673 -37 34 C-36.46955078 33.51080078 -35.93910156 33.02160156 -35.39257812 32.51757812 C-25.5878187 23.48087819 -25.5878187 23.48087819 -21.1875 19.6875 C-13.91774234 13.39013031 -6.80150544 6.80150544 0 0 Z " fill="#3F70B1" transform="translate(763,864)"/>
<path d="M0 0 C0.73604184 -0.00265183 1.47208369 -0.00530365 2.23042983 -0.00803584 C4.72229896 -0.0157582 7.21411905 -0.01628913 9.70599937 -0.01688576 C11.50043788 -0.02089846 13.29487547 -0.02533635 15.08931196 -0.03016531 C20.04043387 -0.04215829 24.99154604 -0.04778557 29.94267964 -0.05234647 C35.27482385 -0.0582923 40.60695633 -0.06990472 45.93909264 -0.08063698 C58.8268005 -0.10518498 71.71451227 -0.11979195 84.60223633 -0.13269705 C88.24066144 -0.13640733 91.87908617 -0.14038069 95.51751089 -0.14444971 C118.09795852 -0.16968531 140.67840673 -0.19174462 163.25886536 -0.20417786 C168.49184356 -0.2071077 173.72482175 -0.21006934 178.95779991 -0.21308327 C180.25847847 -0.21382932 181.55915702 -0.21457537 182.89925008 -0.21534403 C203.97463589 -0.22800058 225.0499374 -0.26122617 246.12528379 -0.3028851 C267.74930361 -0.34527911 289.37328024 -0.36887 310.99734151 -0.37409842 C323.14393352 -0.37751549 335.29039379 -0.38930546 347.43694496 -0.42220116 C357.78071179 -0.45016805 368.1243199 -0.46121577 378.4681216 -0.4500057 C383.74709805 -0.4448104 389.02574195 -0.4477625 394.30467033 -0.47247124 C399.13726784 -0.49490231 403.96929271 -0.49427162 408.80189984 -0.47526737 C410.55029628 -0.47245872 412.29873105 -0.47811373 414.04706569 -0.4930803 C429.8101683 -0.6197705 429.8101683 -0.6197705 435.6370281 3.74115312 C439.04569766 7.31848693 440.10279905 11.40764227 440.40457726 16.19951439 C439.77381827 21.87634529 437.57576945 24.68526777 433.40457726 28.44951439 C429.19384877 31.36463411 425.8320816 31.26443046 420.82113743 31.27123547 C419.71697767 31.27476381 419.71697767 31.27476381 418.59051165 31.27836344 C416.10446188 31.28506214 413.61846428 31.28459495 411.13240623 31.28418541 C409.33980425 31.28748348 407.54720302 31.29120893 405.75460273 31.29532689 C400.81327873 31.30536125 395.87196688 31.30906598 390.93063414 31.3117162 C385.60740874 31.31561493 380.28419299 31.32519347 374.96097374 31.33392906 C362.09890501 31.35370431 349.23683548 31.36376042 336.37475535 31.37265685 C330.32213761 31.37703747 324.26952074 31.38240482 318.21690369 31.38764572 C298.10483259 31.40465804 277.99276204 31.41915359 257.88068485 31.42639446 C252.65988921 31.42830444 247.43909358 31.43022476 242.21829796 31.4321804 C240.27182737 31.43290601 240.27182737 31.43290601 238.28603414 31.43364628 C217.25140724 31.44195173 196.21683712 31.46729733 175.18223502 31.49976108 C153.6011331 31.53279761 132.02006007 31.55084008 110.43893272 31.5540387 C98.31591542 31.55620681 86.19298095 31.56499957 74.06998825 31.59049988 C63.74852682 31.61216026 53.42716833 31.62028027 43.10568675 31.6105331 C37.83712386 31.60597503 32.56877357 31.60796191 27.30023956 31.62729454 C22.47957172 31.64483145 17.65927305 31.64400595 12.83860181 31.62839725 C11.09229304 31.62600673 9.34595934 31.63041897 7.59968885 31.6422259 C5.22952083 31.6572618 2.86067504 31.64773118 0.4905405 31.63199902 C-1.48574281 31.63346423 -1.48574281 31.63346423 -3.50195104 31.63495904 C-8.62952827 30.9118579 -11.610115 28.44445935 -15.34542274 25.01201439 C-17.79429949 20.83985401 -18.21814797 16.93743488 -18.03292274 12.13701439 C-16.33521508 6.84416109 -13.36040685 4.35960893 -9.03292274 1.13701439 C-6.04478737 -0.3570533 -3.33486915 0.00589099 0 0 Z " fill="#F4F7FB" transform="translate(429.032922744751,707.8629856109619)"/>
<path d="M0 0 C0.73159604 -0.00235223 1.46319207 -0.00470446 2.21695769 -0.00712797 C4.6816622 -0.0138135 7.14631394 -0.01335988 9.61102676 -0.01294994 C11.39069202 -0.01624883 13.17035652 -0.01997445 14.95002007 -0.02409142 C19.85101878 -0.03411645 24.75200524 -0.03782902 29.65301275 -0.04048073 C34.93467702 -0.04438222 40.21633158 -0.05396057 45.49798965 -0.0626936 C58.25731452 -0.08246099 71.01664019 -0.09252394 83.77597654 -0.10142139 C89.78201116 -0.10580328 95.7880449 -0.11117029 101.79407883 -0.11641026 C121.75434944 -0.13342176 141.71461949 -0.14791698 161.67489624 -0.155159 C166.85528692 -0.15706894 172.0356776 -0.15898927 177.21606827 -0.16094494 C178.50365336 -0.16142868 179.79123845 -0.16191242 181.11784127 -0.16241082 C201.98615727 -0.17071505 222.85441602 -0.19605897 243.722707 -0.22852562 C265.13886844 -0.26157355 286.55500075 -0.27960565 307.97118783 -0.28280324 C319.999239 -0.28497028 332.02720665 -0.29374756 344.055233 -0.31926441 C354.29646404 -0.34094033 364.53759128 -0.34903709 374.77884266 -0.33929763 C380.00513039 -0.33474411 385.23120379 -0.33670032 390.45746231 -0.35605907 C395.24180404 -0.37362811 400.02577409 -0.37274399 404.81011942 -0.35716178 C406.54095623 -0.3547762 408.27181836 -0.35915832 410.00261638 -0.37099043 C426.15430825 -0.47456822 426.15430825 -0.47456822 432.78345108 4.13422108 C436.96142368 8.63357619 438.20499093 11.652383 438.12720108 17.68109608 C437.54524233 21.83416532 435.69442016 25.14201565 432.78345108 28.13422108 C428.22179456 30.87838488 424.46135823 31.56602682 419.23713303 31.51453781 C418.12271585 31.52152769 418.12271585 31.52152769 416.98578519 31.52865878 C414.49437309 31.54061694 412.0035055 31.53121037 409.51208878 31.52190113 C407.70864546 31.52607368 405.90520477 31.53155076 404.10176897 31.53822094 C399.1443688 31.5527044 394.18713448 31.54842177 389.22972512 31.54105413 C383.88404662 31.53633199 378.5384045 31.54882379 373.19273758 31.55907154 C362.71991094 31.57628309 352.24714424 31.57709474 341.77430713 31.57185864 C333.26429248 31.56782041 324.75429557 31.56925636 316.24428177 31.5746069 C315.03399418 31.57535532 313.8237066 31.57610374 312.57674363 31.57687484 C310.11821822 31.57840628 307.65969281 31.57994463 305.2011674 31.58148981 C282.13697118 31.59522315 259.07280886 31.58977109 236.00861341 31.5783046 C214.8965724 31.56836936 193.784619 31.58131646 172.67259151 31.60523879 C151.00550568 31.62960552 129.3384607 31.63924376 107.67136145 31.63258606 C95.50256776 31.6290887 83.33384149 31.63136008 71.16505814 31.64883709 C60.80706015 31.66352866 50.44917705 31.66423435 40.0911814 31.64676618 C34.80437875 31.63822905 29.51778161 31.63617269 24.23098946 31.65141773 C19.39377428 31.66519397 14.55694202 31.66059314 9.71974939 31.6411785 C7.96747941 31.63739641 6.21517927 31.64040354 4.46293598 31.65079015 C2.08474899 31.66388752 -0.29210212 31.6524429 -2.67023087 31.63479233 C-3.69566355 31.6492681 -3.69566355 31.6492681 -4.74181205 31.6640363 C-9.64598842 31.5890708 -12.41802712 30.1605562 -16.21654892 27.13422108 C-18.91438032 23.6356964 -20.08304266 19.96492671 -20.77904892 15.63422108 C-19.89127672 10.11030515 -17.20926692 6.00616829 -13.15404892 2.19672108 C-8.89878193 -0.13681243 -4.79157267 0.00655977 0 0 Z " fill="#F3F6FB" transform="translate(431.21654891967773,540.8657789230347)"/>
<path d="M0 0 C0.73634144 -0.00235223 1.47268288 -0.00470446 2.2313377 -0.00712797 C4.72421805 -0.01383958 7.21704654 -0.0133591 9.70993519 -0.01294994 C11.50508622 -0.01624723 13.30023651 -0.01997251 15.09538585 -0.02409142 C20.04844015 -0.03413501 25.00148233 -0.037832 29.95454538 -0.04048073 C35.28871419 -0.04437683 40.62287335 -0.05395565 45.95703602 -0.0626936 C58.84919061 -0.08247797 71.74134601 -0.09252683 84.63351199 -0.10142139 C90.69994977 -0.10580116 96.76638667 -0.11116878 102.83282375 -0.11641026 C122.9911754 -0.1334247 143.14952649 -0.1479197 163.30788422 -0.155159 C168.54190223 -0.15706899 173.77592024 -0.15898931 179.00993824 -0.16094494 C180.3108791 -0.16142868 181.61181997 -0.16191242 182.95218328 -0.16241082 C204.0346971 -0.17071416 225.11715423 -0.19605525 246.19964328 -0.22852562 C267.8293089 -0.26156796 289.45894569 -0.27960521 311.0886367 -0.28280324 C323.23908743 -0.28497098 335.38945552 -0.29375823 347.53988171 -0.31926441 C357.88622523 -0.34093285 368.23246603 -0.34904087 378.57882967 -0.33929763 C383.85966093 -0.3347417 389.14028009 -0.33671411 394.4210825 -0.35605907 C399.25417834 -0.37361138 404.0869061 -0.37275774 408.92000542 -0.35716178 C410.66972657 -0.35477361 412.41947269 -0.35917155 414.16915556 -0.37099043 C416.5463398 -0.38605509 418.92221065 -0.37647563 421.29936218 -0.36076355 C421.979896 -0.37098576 422.66042983 -0.38120796 423.36158589 -0.39173993 C428.66682448 -0.31512337 431.65491884 1.27139979 435.96428394 4.13422108 C438.95963204 7.28721907 440.20392362 10.88501492 440.40178394 15.19672108 C439.83421682 20.30482517 438.35023389 23.41373149 435.15178394 27.38422108 C430.42595273 31.16488605 425.35170951 31.38481134 419.48043537 31.38869667 C418.74424408 31.39190315 418.00805279 31.39510963 417.24955267 31.39841327 C414.78121471 31.40671855 412.31311906 31.40078717 409.84477711 31.39491749 C408.05783475 31.39793792 406.27089368 31.40182686 404.48395491 31.40651006 C399.57219099 31.41681255 394.66049989 31.41460251 389.74872994 31.41032946 C384.45213959 31.40786636 379.15556695 31.41687117 373.85898304 31.42436695 C363.48242032 31.43712705 353.10588346 31.43890605 342.72931421 31.43656669 C334.29748742 31.43478502 325.8656685 31.43652992 317.43384266 31.44079113 C315.63506345 31.44168391 315.63506345 31.44168391 313.79994527 31.44259473 C311.36396785 31.44380646 308.92799045 31.44502059 306.49201304 31.44623711 C283.63956423 31.45711747 260.78713017 31.45494767 237.93468052 31.44885226 C217.01665043 31.44368131 196.09866688 31.45494239 175.180646 31.47395048 C153.71244708 31.49330932 132.2442702 31.50158841 110.77606249 31.49782723 C98.71906185 31.49591239 86.66210084 31.49843036 74.60510731 31.51254177 C64.34228162 31.52443157 54.07951996 31.52588741 43.81669343 31.5137516 C38.57852753 31.50784634 33.34047889 31.50680891 28.10232067 31.51875401 C23.30957536 31.52955661 18.51704602 31.52657684 13.72431105 31.51249232 C11.98819068 31.50982985 10.25205368 31.5122602 8.51594955 31.52022818 C6.15974809 31.5302937 3.80430327 31.52194749 1.44813251 31.50895119 C-0.51659818 31.50903371 -0.51659818 31.50903371 -2.52102041 31.5091179 C-6.98086931 31.03340582 -10.35805191 29.67241195 -13.68024731 26.62640858 C-16.99994098 22.02990965 -18.38018692 17.84408664 -18.03571606 12.13422108 C-16.30794457 6.84927301 -13.36424917 4.3575968 -9.03571606 1.13422108 C-6.04665902 -0.36030744 -3.33582241 0.00452027 0 0 Z " fill="#F4F6FC" transform="translate(429.03571605682373,375.86577892303467)"/>
<path d="M0 0 C55.66240967 -0.11440319 111.32480766 -0.20252746 166.98731175 -0.25532665 C173.55632001 -0.2615803 180.12532803 -0.2680519 186.69433594 -0.2746582 C188.00212672 -0.27596976 189.30991751 -0.27728131 190.65733832 -0.2786326 C211.84277697 -0.30039891 233.02814789 -0.33982723 254.21354634 -0.38576398 C275.94597923 -0.43249444 297.67837661 -0.46028819 319.41085768 -0.47044247 C332.82481235 -0.47730868 346.2385756 -0.49900783 359.65247136 -0.53958233 C368.84645477 -0.56597855 378.04033898 -0.57400804 387.23435754 -0.56750689 C392.54167833 -0.56429917 397.84866425 -0.56927316 403.15592575 -0.59602737 C408.01449954 -0.62034117 412.87251295 -0.62159959 417.73111242 -0.60449447 C419.48899329 -0.60238011 421.24690899 -0.60873857 423.00472122 -0.62441591 C439.33874144 -0.76162612 439.33874144 -0.76162612 446 5 C449.88695884 10.10621715 450.60261872 15.77293984 450 22 C449.25 25.875 449.25 25.875 448 29 C446 30.25 446 30.25 444 31 C443.34 31.99 442.68 32.98 442 34 C438.40933484 35.46539889 434.47211596 35.1375132 430.65178299 35.12304783 C429.90597156 35.12420167 429.16016014 35.12535552 428.39174837 35.12654433 C425.87875813 35.12920288 423.36583124 35.12469505 420.85284424 35.12025452 C419.0386045 35.12069037 417.22436483 35.12156555 415.41012549 35.12284368 C410.41386399 35.1250858 405.41762381 35.1210712 400.42136502 35.11606562 C395.03760862 35.11175727 389.65385347 35.11320782 384.27009583 35.1139679 C374.93875085 35.11449289 365.60741286 35.11134868 356.27606964 35.10573006 C342.78442278 35.09761169 329.2927793 35.09499949 315.80113026 35.09374207 C293.91315394 35.09155208 272.02518134 35.08489343 250.13720703 35.07543945 C228.87190774 35.06626396 207.60660946 35.0591838 186.34130859 35.05493164 C184.37594835 35.05453756 184.37594835 35.05453756 182.37088385 35.05413551 C175.79795912 35.0528305 169.22503437 35.05156678 162.65210962 35.05032361 C108.10140384 35.03995265 53.5507021 35.02233577 -1 35 C-1.495 33.515 -1.495 33.515 -2 32 C-3.32407669 31.31513275 -4.65909241 30.65129797 -6 30 C-8.25 28.0625 -8.25 28.0625 -10 26 C-10 25.01 -10 24.02 -10 23 C-10.66 23 -11.32 23 -12 23 C-12.57628458 9.80948617 -12.57628458 9.80948617 -9 5 C-5.61101532 2.39308871 -4.37265387 2 0 2 C0 1.34 0 0.68 0 0 Z M-7.3125 8.1875 C-9.6344587 12.05743117 -10.20670659 15.5081068 -10 20 C-8.23898029 24.81963289 -5.50997588 29.70082717 -0.82706296 32.12472028 C2.67947332 33.21036999 5.68462961 33.25204442 9.35800743 33.25447559 C10.46011421 33.25928531 10.46011421 33.25928531 11.58448577 33.26419219 C14.05391061 33.27251344 16.52309425 33.26656051 18.99252319 33.26069641 C20.77788981 33.26371613 22.56325513 33.2676047 24.34861815 33.27228898 C29.26071077 33.28260094 34.17273066 33.28037903 39.08482933 33.27610838 C44.38009307 33.27364695 49.67533903 33.28264807 54.97059631 33.29014587 C65.34696325 33.30291121 75.72330432 33.30468428 86.09967779 33.30234561 C94.53199663 33.30056431 102.96430761 33.30230804 111.39662552 33.30657005 C112.59565843 33.30716524 113.79469133 33.30776043 115.03005857 33.30837366 C117.46571178 33.30958538 119.901365 33.31079951 122.33701821 33.31201603 C145.19140047 33.32289867 168.04576799 33.32072567 190.90015109 33.31463119 C211.8175692 33.30946156 232.73494074 33.3207174 253.65234964 33.33972941 C275.11939172 33.35909172 296.58641175 33.36736662 318.05346262 33.36360615 C330.1099511 33.36169164 342.16639995 33.36420594 354.22288132 33.37832069 C364.48680059 33.39021501 374.75065583 33.39166132 385.01457594 33.37953053 C390.25285879 33.37362809 395.4910244 33.37258004 400.72929955 33.38453293 C405.52337062 33.39534523 410.31722593 33.39234401 415.11128671 33.37827124 C416.84678183 33.37561144 418.58229361 33.37803088 420.31777243 33.38600711 C422.67554617 33.39609231 425.03256684 33.38770946 427.39031029 33.37473011 C428.70029311 33.37478513 430.01027592 33.37484014 431.35995519 33.37489682 C436.06943792 32.88985606 440.07836312 31.65450351 443.7421875 28.5 C447.55231333 23.45486786 448.81163541 19.30756658 448 13 C446.28383638 7.87218582 443.72529668 5.51395273 438.97416592 2.86635548 C435.76571329 1.4583378 432.8221316 1.49834736 429.34625149 1.49663544 C428.60384123 1.49082167 427.86143097 1.48500791 427.09652343 1.47901797 C424.61279832 1.46443864 422.13006468 1.47829292 419.64634705 1.49206543 C417.84616372 1.4874557 416.04598416 1.48110229 414.24581248 1.47315645 C409.30202295 1.45645016 404.35854208 1.46471545 399.41475141 1.47710133 C394.08203686 1.48614407 388.74937573 1.47218598 383.41667175 1.46118164 C372.9713675 1.44338394 362.52617814 1.4472419 352.08086937 1.4588322 C343.59328179 1.46786083 335.10572645 1.469093 326.61813545 1.46473694 C325.41075872 1.46412401 324.20338198 1.46351107 322.95941808 1.46287957 C320.50677119 1.46160069 318.05412432 1.46030383 315.60147745 1.4589892 C292.59687527 1.44757986 269.59233681 1.46070294 246.58774508 1.48219067 C226.84093551 1.50006422 207.09421998 1.49695608 187.34741211 1.47851562 C164.42432801 1.4571191 141.50129977 1.44867614 118.57820708 1.46096468 C116.13482099 1.4622389 113.69143489 1.46349638 111.24804878 1.46473694 C110.04580589 1.46535404 108.843563 1.46597114 107.60488851 1.46660694 C99.12519401 1.47006333 90.64553489 1.46422534 82.16584587 1.45481873 C71.83531436 1.443611 61.50490445 1.44661309 51.17438691 1.4679417 C45.90175808 1.47846824 40.62933214 1.48254655 35.35670471 1.46934509 C30.53247518 1.4574488 25.70863712 1.46393811 20.88444323 1.4852553 C19.13691653 1.48973306 17.38935694 1.48742886 15.6418513 1.47775215 C13.27006356 1.46562332 10.89962425 1.47802626 8.52790737 1.49663544 C6.55031985 1.49760955 6.55031985 1.49760955 4.53278106 1.49860334 C-0.61418241 2.2290959 -3.60999975 4.6851349 -7.3125 8.1875 Z " fill="#83AFDE" transform="translate(421,374)"/>
<path d="M0 0 C2.14247007 4.28494014 3.12526734 7.31623852 3.1241985 12.0490582 C3.12644579 12.8521605 3.12869308 13.6552628 3.13100848 14.48270154 C3.12838146 15.36100086 3.12575445 16.23930018 3.12304783 17.14421463 C3.12420167 18.08418903 3.12535552 19.02416343 3.12654433 19.9926219 C3.12920706 23.16609893 3.1246916 26.339526 3.12025452 29.51300049 C3.12069029 31.80159223 3.1215653 34.09018393 3.12284368 36.37877536 C3.12508747 42.68621618 3.12106892 48.99364013 3.11606562 55.3010788 C3.1117129 61.39867011 3.11302533 67.49626153 3.11374746 73.59385392 C3.11506225 86.06972539 3.11171661 98.54559156 3.10573006 111.02146149 C3.09981638 123.37708818 3.09596479 135.73271266 3.09487724 148.08834076 C3.0948085 148.85610192 3.09473976 149.62386307 3.09466894 150.41488972 C3.09433062 154.31383877 3.09402923 158.21278781 3.09374207 162.11173686 C3.09164073 189.73985733 3.0849008 217.36797491 3.07543945 244.99609375 C3.06625754 271.83919255 3.05917269 298.68229057 3.05493164 325.52539062 C3.05480011 326.3525715 3.05466859 327.17975237 3.05453308 328.03199932 C3.05321458 336.3387644 3.05193876 344.64552948 3.05069422 352.95229456 C3.04815789 369.87467021 3.04533664 386.79704581 3.04234314 403.71942139 C3.0421372 404.88655894 3.0421372 404.88655894 3.04192711 406.07727503 C3.03770337 429.93036225 3.03227178 453.78344898 3.02565002 477.63653564 C3.02546247 478.31385314 3.02527491 478.99117064 3.02508167 479.68901291 C3.01746571 507.12600883 3.00857225 534.56300437 3 562 C-50.79 562 -104.58 562 -160 562 C-160 561.67 -160 561.34 -160 561 C-153.03876113 559.69140708 -146.10000554 559.87462992 -139.03759766 559.90234375 C-137.62261508 559.90426514 -136.20763181 559.90572789 -134.79264832 559.9067688 C-131.75560864 559.90991989 -128.71859706 559.91617363 -125.68156815 559.92483521 C-120.87303125 559.93840719 -116.06450354 559.94426239 -111.25595093 559.94897461 C-100.17875586 559.96099768 -89.10158502 559.98304012 -78.02440643 560.00520325 C-67.87356772 560.02541436 -57.72273725 560.04347842 -47.57188261 560.05341816 C-42.798315 560.05838154 -38.02479038 560.06821299 -33.25124002 560.08184814 C-30.27353573 560.08934333 -27.29583723 560.09263051 -24.31812477 560.0948143 C-22.29337957 560.09755841 -20.26864312 560.10534194 -18.24391174 560.11331177 C-17.02160355 560.11338226 -15.79929535 560.11345276 -14.53994751 560.11352539 C-12.96210952 560.11685631 -12.96210952 560.11685631 -11.35239601 560.12025452 C-7.22068983 559.9720452 -3.10907668 559.45656408 1 559 C0.67 374.53 0.34 190.06 0 0 Z " fill="#80B0EB" transform="translate(972,274)"/>
<path d="M0 0 C1.33705833 -0.00262956 1.33705833 -0.00262956 2.70112795 -0.00531223 C5.72139277 -0.01000545 8.74161014 -0.00749825 11.76187706 -0.00507832 C13.93579662 -0.00694463 16.10971585 -0.00924461 18.28363454 -0.01194364 C24.28370571 -0.01809047 30.283763 -0.01792467 36.2838366 -0.01674926 C42.74482138 -0.01654598 49.20580161 -0.02205716 55.66678429 -0.02680683 C68.33593735 -0.03534852 81.00508645 -0.03787538 93.67424209 -0.03841921 C103.96970376 -0.03887826 114.26516391 -0.04093405 124.56062508 -0.04411983 C127.52124798 -0.04501735 130.48187089 -0.04590716 133.4424938 -0.04679471 C134.54645184 -0.04712628 134.54645184 -0.04712628 135.67271206 -0.04746456 C156.38447412 -0.05362182 177.09623565 -0.05756482 197.80799866 -0.05712128 C198.58941509 -0.0571057 199.37083153 -0.05709012 200.17592725 -0.05707407 C204.13669992 -0.05699096 208.09747259 -0.05689192 212.05824526 -0.05678936 C213.23823208 -0.05675944 213.23823208 -0.05675944 214.44205703 -0.05672892 C216.03287348 -0.05668848 217.62368992 -0.05664669 219.21450637 -0.05660353 C243.95990656 -0.0559909 268.70529305 -0.06349379 293.45068932 -0.07717609 C321.23696489 -0.09253335 349.02323146 -0.10114249 376.80951154 -0.10021287 C379.77202058 -0.10013824 382.73452961 -0.10008953 385.69703865 -0.10005856 C386.42650972 -0.1000469 387.15598079 -0.10003525 387.90755704 -0.10002324 C399.65338409 -0.09999245 411.39919926 -0.10638204 423.14502277 -0.11499082 C434.94966911 -0.12346376 446.75429657 -0.12428839 458.5589443 -0.1178815 C464.9557567 -0.11460864 471.35252599 -0.11458711 477.74933434 -0.12323475 C483.6032041 -0.13106711 489.45699634 -0.12970182 495.31086414 -0.12095062 C497.43071766 -0.11940839 499.55057688 -0.12125883 501.6704237 -0.12681069 C504.54888057 -0.13385109 507.42706399 -0.12859247 510.30551147 -0.12025452 C511.54377136 -0.12770679 511.54377136 -0.12770679 512.80704659 -0.13530961 C518.02574427 -0.10329007 522.51047734 0.68514526 527.53027916 2.12863445 C527.53027916 2.45863445 527.53027916 2.78863445 527.53027916 3.12863445 C526.41201536 3.12787501 525.29375155 3.12711557 524.14160097 3.12633312 C474.84486326 3.0929863 425.54812484 3.06213199 376.25137901 3.04394817 C375.50474118 3.04367206 374.75810334 3.04339595 373.98884012 3.04311146 C357.76136297 3.03712528 341.5338857 3.03158497 325.30640825 3.02650379 C317.34815425 3.02400918 309.38990029 3.02141606 301.43164635 3.01877117 C300.6397155 3.01850965 299.84778466 3.01824814 299.03185591 3.01797869 C273.3752473 3.00946 247.71864751 2.99444037 222.06204425 2.97604001 C195.69076999 2.95716152 169.31950061 2.94486048 142.94821971 2.94080447 C139.22121519 2.94022819 135.49421069 2.93957691 131.76720619 2.93887997 C131.03369721 2.93874512 130.30018823 2.93861027 129.5444517 2.93847134 C117.74948675 2.93611033 105.95453692 2.92684073 94.15957813 2.91497038 C82.29409542 2.90317712 70.42862766 2.8987032 58.5631393 2.9016317 C52.13724201 2.90291257 45.71138899 2.90094983 39.28549957 2.8902235 C33.3979314 2.88046767 27.51043714 2.88001474 21.62286551 2.88683666 C19.49746077 2.88767942 17.37205134 2.88516223 15.24665575 2.87886809 C0.98985402 2.83911677 -13.00026663 2.81632816 -26.46972084 8.12863445 C-27.31534584 8.43800945 -28.16097084 8.74738445 -29.03222084 9.06613445 C-32.00751457 10.36305736 -34.84627916 11.87732662 -37.70018959 13.4216032 C-38.2841349 13.65492352 -38.86808022 13.88824383 -39.46972084 14.12863445 C-40.12972084 13.79863445 -40.78972084 13.46863445 -41.46972084 13.12863445 C-38.7164642 9.73121965 -34.94250957 8.26804542 -31.03222084 6.56613445 C-30.32371986 6.25530926 -29.61521889 5.94448406 -28.88524818 5.62423992 C-23.57385461 3.38754909 -18.47072451 2.09060491 -12.72753334 1.41769695 C-1.62313356 -0.00397361 -1.62313356 -0.00397361 0 0 Z " fill="#8DBAEC" transform="translate(384.4697208404541,210.87136554718018)"/>
<path d="M0 0 C1.1191299 -0.00737246 1.1191299 -0.00737246 2.26086849 -0.01489386 C4.75711168 -0.02647019 7.25233184 -0.00956645 9.74853325 0.00723743 C11.55767685 0.0047765 13.36681878 0.00056089 15.1759547 -0.00525731 C20.1444982 -0.01614232 25.11270625 -0.00207508 30.08121705 0.01606309 C35.44048149 0.03127535 40.79971795 0.02340578 46.15899467 0.01837635 C56.65611641 0.01214821 67.15310646 0.02714591 77.65020289 0.04910197 C89.86922391 0.07377827 102.08822074 0.07670614 114.307263 0.07850573 C136.10468093 0.08238308 157.90203948 0.10485735 179.69943047 0.13829517 C200.86154236 0.17073206 222.02362291 0.19197554 243.18575859 0.19981861 C244.48939657 0.2003041 245.79303456 0.20078959 247.13617672 0.2012898 C252.37587091 0.20321842 257.6155651 0.20513055 262.85525931 0.2070059 C283.00851895 0.2145351 303.16177342 0.23016346 323.31502674 0.2475025 C329.40696166 0.25274081 335.49889649 0.25767379 341.59083223 0.26186442 C354.40179008 0.27078062 367.21273289 0.28254965 380.02367748 0.30343046 C385.32244408 0.31203478 390.62120026 0.31911701 395.91997337 0.32194614 C400.76684413 0.32460991 405.6136848 0.33188999 410.4605435 0.34293661 C412.21747525 0.3461466 413.97441101 0.34767489 415.73134567 0.34738632 C418.11297514 0.34726137 420.49451342 0.35322552 422.87612915 0.36076355 C423.56369645 0.35927993 424.25126376 0.3577963 424.95966643 0.35626772 C428.53494059 0.37462542 431.83411959 0.65485211 435.31222343 1.49498463 C435.41534843 2.13435963 435.51847343 2.77373463 435.62472343 3.43248463 C435.85159843 4.11310963 436.07847343 4.79373463 436.31222343 5.49498463 C437.30222343 5.82498463 438.29222343 6.15498463 439.31222343 6.49498463 C441.68851275 9.84231575 441.55027226 12.98784163 441.49972343 16.99498463 C441.49327812 18.11904713 441.48683281 19.24310963 441.48019218 20.40123463 C441.34177874 22.95061717 441.05556957 25.06870283 440.31222343 27.49498463 C439.69347343 27.57748463 439.07472343 27.65998463 438.43722343 27.74498463 C435.63716925 28.73323905 435.57108411 29.89858448 434.31222343 32.49498463 C430.73019238 34.97435987 427.2899557 34.74770658 423.03599834 34.75225353 C421.92892344 34.75751264 421.92892344 34.75751264 420.79948339 34.762878 C418.31275517 34.77222261 415.82625957 34.76726084 413.33952141 34.76241016 C411.54406851 34.7661449 409.74861724 34.77074571 407.95316857 34.77614081 C403.00847676 34.78840836 398.06385242 34.78810593 393.11914885 34.78575206 C387.79042487 34.78534483 382.4617228 34.7963741 377.13300896 34.8058672 C366.68832538 34.82249933 356.24366436 34.82797776 345.79896865 34.82909195 C337.30991122 34.83004149 328.82086125 34.83414707 320.33180618 34.8404932 C296.27386357 34.85811256 272.21593883 34.86733112 248.15798972 34.86583225 C246.2114338 34.86571239 246.2114338 34.86571239 244.22555351 34.8655901 C242.92626827 34.86550833 241.62698303 34.86542657 240.28832551 34.86534233 C219.23315248 34.8645295 198.17805101 34.88366478 177.12289868 34.91186683 C155.51349634 34.94058325 133.90412891 34.95440777 112.294707 34.95267928 C100.15875904 34.95201489 88.02288606 34.95752839 75.88695526 34.97903538 C65.5531549 34.99723093 55.2194635 35.00160794 44.88565407 34.98801653 C39.61266619 34.98147837 34.33988743 34.98140031 29.06691933 34.99872303 C24.23872634 35.01442144 19.41090884 35.01162307 14.58272519 34.99415477 C12.83706867 34.99107772 11.09138436 34.99474372 9.34576062 35.00587492 C-9.61101993 35.11873836 -9.61101993 35.11873836 -17.22683907 28.18248463 C-19.08875657 24.75735296 -19.15481804 22.3774612 -19.06277657 18.49498463 C-19.04988594 17.29873463 -19.03699532 16.10248463 -19.02371407 14.86998463 C-18.70566317 11.67468256 -18.05313887 9.3786298 -16.68777657 6.49498463 C-16.02777657 6.49498463 -15.36777657 6.49498463 -14.68777657 6.49498463 C-14.68777657 5.83498463 -14.68777657 5.17498463 -14.68777657 4.49498463 C-9.67948221 1.22901218 -6.03706056 -0.09036966 0 0 Z M-14.00027657 6.93248463 C-14.55715157 7.77810963 -15.11402657 8.62373463 -15.68777657 9.49498463 C-16.10027657 10.11373463 -16.51277657 10.73248463 -16.93777657 11.36998463 C-18.92185669 16.99154497 -17.59421413 21.46908359 -15.14871407 26.60045338 C-12.20381279 30.41937615 -8.90251584 32.32244176 -4.14973414 32.99753195 C-2.81567686 33.01901261 -1.48115751 33.01887497 -0.14704514 33.0011425 C0.59530046 33.00725586 1.33764605 33.01336922 2.10248697 33.01966783 C4.59202324 33.03527848 7.0805868 33.02239792 9.57012749 33.00964832 C11.37214783 33.01497306 13.17416372 33.02203832 14.97617114 33.03069538 C19.92975307 33.04935947 24.8830368 33.04300473 29.8366313 33.03254235 C35.17826872 33.02556099 40.51984423 33.04154024 45.86146355 33.05453968 C56.32695488 33.07620319 66.79233757 33.07604667 77.25784396 33.06791414 C85.76307856 33.06161881 94.26828144 33.06274688 102.7735157 33.06918621 C103.98322584 33.07008787 105.19293598 33.07098952 106.439304 33.0719185 C108.89669796 33.07376967 111.3540919 33.07563223 113.81148584 33.07750606 C136.86621486 33.09409292 159.92088272 33.08535799 182.97560807 33.06852048 C204.07338477 33.05382482 225.17101905 33.06844852 246.26877742 33.09729064 C267.9245792 33.12667548 289.58031523 33.13765944 311.23613608 33.12810844 C313.68519059 33.12708588 316.13424511 33.12609127 318.58329964 33.12512493 C320.39083048 33.12441035 320.39083048 33.12441035 322.2348771 33.12368133 C330.72966214 33.12151588 339.22438502 33.13132832 347.71915627 33.14589596 C358.07199722 33.16340203 368.4246566 33.16332673 378.77749036 33.1405443 C384.06052954 33.12938617 389.3432486 33.12627533 394.62627411 33.14484501 C399.46243817 33.16162533 404.29800231 33.15533176 409.13412733 33.13062822 C410.88373963 33.12573647 412.63340009 33.12928361 414.38297217 33.14211566 C425.81918407 33.47340359 425.81918407 33.47340359 435.98256266 28.83520454 C439.4905973 25.29931179 440.48173178 21.83507638 440.74972343 16.99498463 C440.57557605 12.48986754 439.34067393 9.92191545 436.31222343 6.49498463 C430.76918695 2.30942647 427.08127617 1.3701025 420.21592903 1.36355686 C419.48518724 1.36150423 418.75444545 1.35945159 418.00155997 1.35733676 C415.53374769 1.35164709 413.06599086 1.35312643 410.59817314 1.35454273 C408.81865841 1.35196022 407.03914426 1.34894738 405.25963092 1.34553933 C400.35444048 1.33745265 395.44926465 1.33567883 390.54406834 1.33494186 C385.25968023 1.3330942 379.97529977 1.32554833 374.69091606 1.31880665 C363.12901 1.30521097 351.56710739 1.29919669 340.00519466 1.29479599 C332.78930716 1.29203566 325.573421 1.28779869 318.35753441 1.28329182 C298.38872296 1.27109755 278.41991258 1.26079854 258.45109749 1.25741673 C257.17245572 1.25719716 255.89381396 1.25697759 254.57642548 1.25675137 C253.29468046 1.2565331 252.01293545 1.25631482 250.69234967 1.25608993 C248.0949378 1.25564646 245.49752593 1.25519989 242.90011406 1.25475025 C240.9674947 1.25441811 240.9674947 1.25441811 238.99583253 1.25407925 C218.11385565 1.25013033 197.23191364 1.23267415 176.34995022 1.20939073 C154.92365493 1.18569272 133.49737714 1.17321558 112.07106853 1.17204881 C100.03578528 1.17113117 88.00054747 1.16535668 75.96527672 1.14722919 C65.71778233 1.13184913 55.47034741 1.12669535 45.22284368 1.1349673 C39.99267261 1.13888122 34.7626214 1.13790801 29.53246498 1.12390995 C24.74572083 1.11121559 19.95918715 1.11232917 15.17244348 1.12450066 C13.43957824 1.12646542 11.70669832 1.12334345 9.97385374 1.1146563 C7.61960715 1.10359997 5.26610808 1.11102627 2.9118824 1.12304783 C1.6038532 1.12245074 0.295824 1.12185365 -1.05184245 1.12123847 C-6.31903632 1.66266563 -10.26943502 2.99997597 -14.00027657 6.93248463 Z " fill="#7FABD8" transform="translate(428.68777656555176,539.50501537323)"/>
<path d="M0 0 C0.74510303 -0.00235223 1.49020605 -0.00470446 2.25788796 -0.00712797 C4.76853943 -0.01381443 7.27913911 -0.01335985 9.78979874 -0.01294994 C11.60246238 -0.01624877 13.41512529 -0.01997438 15.22778726 -0.02409142 C20.21999853 -0.03411711 25.21219779 -0.03782912 30.20441771 -0.04048073 C35.58424231 -0.04438202 40.96405737 -0.05396039 46.34387589 -0.0626936 C59.34050361 -0.08246155 72.33713211 -0.09252401 85.33377111 -0.10142139 C91.4513799 -0.10580319 97.56898782 -0.11117023 103.68659592 -0.11641026 C124.01745168 -0.13342182 144.34830691 -0.14791706 164.6791687 -0.155159 C169.95581183 -0.15706894 175.23245495 -0.15898927 180.50909805 -0.16094494 C181.82060806 -0.16142868 183.13211807 -0.16191242 184.48337081 -0.16241082 C205.73967789 -0.17071514 226.99592877 -0.19605918 248.2522113 -0.22852562 C270.06613708 -0.26157274 291.88003427 -0.27960558 313.69398522 -0.28280324 C325.94560115 -0.28497036 338.19713509 -0.29374874 350.44872665 -0.31926441 C360.88026576 -0.34093922 371.31170295 -0.34903764 381.74326202 -0.33929763 C387.06676106 -0.33474379 392.39004969 -0.33670219 397.71352005 -0.35605907 C402.58667985 -0.3736258 407.45947473 -0.37274587 412.33263806 -0.35716178 C414.09577605 -0.35477585 415.85893889 -0.35916011 417.62203881 -0.37099043 C434.37964712 -0.47647061 434.37964712 -0.47647061 440.65851212 4.13422108 C442.96286745 7.92011865 442.95780039 11.0965038 442.97101212 15.50922108 C442.98776993 16.79570545 443.00452774 18.08218983 443.02179337 19.40765858 C442.63484363 23.37701388 441.8123999 25.79493837 439.65851212 29.13422108 C438.66851212 29.46422108 437.67851212 29.79422108 436.65851212 30.13422108 C436.65851212 30.79422108 436.65851212 31.45422108 436.65851212 32.13422108 C433.71179447 33.6075799 430.7352522 33.27228155 427.50509453 33.26285553 C426.75603568 33.26460857 426.00697684 33.2663616 425.23521924 33.26816776 C422.69910361 33.27285814 420.16304455 33.27035451 417.62692642 33.26793385 C415.80076404 33.26980029 413.97460206 33.27210033 412.14844072 33.27479917 C407.10978014 33.28094416 402.07113609 33.28078042 397.03247261 33.27960479 C391.60633841 33.27940146 386.18020962 33.28491303 380.75407791 33.28966236 C370.11561921 33.29798426 359.47716605 33.3007179 348.83870436 33.30127474 C340.19509633 33.30174917 331.55149014 33.30380028 322.90788269 33.30697536 C298.42543563 33.31578615 273.94299296 33.32039408 249.4605443 33.31964489 C248.8002615 33.31962495 248.1399787 33.319605 247.45968732 33.31958445 C246.12443375 33.31954401 244.78918017 33.31950222 243.45392659 33.31945906 C222.67608613 33.3188462 201.89826197 33.32635376 181.12042618 33.34003162 C157.79199056 33.3553821 134.46356556 33.36398579 111.13512456 33.3630684 C98.77744072 33.36273581 86.41977528 33.36550979 74.06209564 33.37624645 C63.54148016 33.38532812 53.02089141 33.387546 42.50027372 33.38073703 C37.12873876 33.37745997 31.75725517 33.37745764 26.38572502 33.38609028 C21.47330789 33.39390413 16.56098329 33.39257669 11.64856856 33.38380615 C9.86660355 33.3822598 8.0846318 33.38412956 6.30267473 33.38966622 C3.88954006 33.39667039 1.47673502 33.39147705 -0.93638802 33.38311005 C-1.98585594 33.39056232 -1.98585594 33.39056232 -3.05652523 33.39816514 C-6.65542048 33.37159452 -9.27774654 33.09630793 -12.34148788 31.13422108 C-12.34148788 30.14422108 -12.34148788 29.15422108 -12.34148788 28.13422108 C-13.33148788 27.80422108 -14.32148788 27.47422108 -15.34148788 27.13422108 C-17.31309492 23.45388795 -17.61257062 20.26643739 -17.59148788 16.13422108 C-17.59664413 15.12359608 -17.60180038 14.11297108 -17.60711288 13.07172108 C-17.33512214 10.06382348 -16.60469906 7.86115315 -15.34148788 5.13422108 C-14.35148788 5.13422108 -13.36148788 5.13422108 -12.34148788 5.13422108 C-12.01148788 3.81422108 -11.68148788 2.49422108 -11.34148788 1.13422108 C-7.59210604 -0.06178818 -3.89261944 -0.00833219 0 0 Z M-13.65398788 7.32172108 C-15.98497042 11.20669198 -16.54251123 14.62665923 -16.34148788 19.13422108 C-14.65857962 24.53724235 -12.42424507 28.12844518 -7.66689336 31.2237851 C-4.40717831 32.50001924 -1.57112952 32.38639346 1.92749977 32.38869667 C3.0333903 32.39350639 3.0333903 32.39350639 4.16162205 32.39841327 C6.64563877 32.40675084 9.12941674 32.40077592 11.61343765 32.39491749 C13.4069035 32.39793646 15.20036806 32.40182466 16.99383032 32.40651006 C21.9329159 32.41683161 26.87192923 32.41459769 31.81102085 32.41032946 C37.1335498 32.40786975 42.45606101 32.416867 47.77858353 32.42436695 C58.21023158 32.43713715 68.64185393 32.43890475 79.07350849 32.43656669 C87.55019622 32.43478592 96.02687613 32.43652799 104.50356293 32.44079113 C106.31107469 32.44168391 106.31107469 32.44168391 108.15510184 32.44259473 C110.60283632 32.44380645 113.0505708 32.44502058 115.49830528 32.44623711 C138.46996848 32.45712164 161.44161701 32.45494587 184.41328104 32.44885226 C205.44136914 32.44368258 226.46941092 32.45493829 247.49748985 32.47395048 C269.07410663 32.49330951 290.65070147 32.50158827 312.22732699 32.49782723 C324.34695562 32.49591221 336.46654482 32.498432 348.58616638 32.51254177 C358.90393715 32.52443192 369.22164422 32.52588712 379.53941582 32.5137516 C384.80592133 32.50784619 390.0723102 32.50680924 395.33880806 32.51875401 C400.15753869 32.52955638 404.97605451 32.52657709 409.79477485 32.51249232 C411.5403762 32.50982975 413.2859941 32.5122605 415.0315793 32.52022818 C417.40059465 32.53029308 419.76885737 32.52194798 422.13784218 32.50895119 C423.45482231 32.5090062 424.77180245 32.50906122 426.12869108 32.5091179 C430.60280574 32.03392911 433.99512442 30.68697966 437.30304337 27.59906483 C441.10911518 22.62189399 442.43352929 19.44507522 441.65851212 13.13422108 C439.98632945 7.55356326 437.80990223 4.86168599 432.63267804 1.99288613 C429.42264993 0.59668183 426.47796321 0.63256712 423.0047636 0.63085651 C422.26235335 0.62504275 421.51994309 0.61922899 420.75503555 0.61323905 C418.27131044 0.59865972 415.78857679 0.612514 413.30485916 0.62628651 C411.50467584 0.62167677 409.70449628 0.61532337 407.90432459 0.60737753 C402.96053507 0.59067124 398.0170542 0.59893653 393.07326353 0.6113224 C387.74054897 0.62036514 382.40788784 0.60640705 377.07518387 0.59540272 C366.62987962 0.57760502 356.18469026 0.58146297 345.73938148 0.59305328 C337.25179391 0.60208191 328.76423856 0.60331407 320.27664757 0.59895802 C319.06927083 0.59834508 317.8618941 0.59773215 316.61793019 0.59710065 C314.16528331 0.59582176 311.71263643 0.59452491 309.25998957 0.59321028 C286.25538738 0.58180094 263.25084893 0.59492401 240.24625719 0.61641175 C220.49944762 0.6342853 200.7527321 0.63117715 181.00592422 0.6127367 C158.08284012 0.59134017 135.15981188 0.58289722 112.23671919 0.59518576 C109.7933331 0.59645998 107.349947 0.59771746 104.9065609 0.59895802 C103.70431801 0.59957512 102.50207512 0.60019222 101.26340063 0.60082802 C92.78370613 0.6042844 84.30404701 0.59844641 75.82435799 0.5890398 C65.49382648 0.57783208 55.16341657 0.58083417 44.83289903 0.60216278 C39.56027019 0.61268931 34.28784425 0.61676763 29.01521683 0.60356617 C24.19098729 0.59166988 19.36714923 0.59815918 14.54295535 0.61947638 C12.79542865 0.62395414 11.04786906 0.62164994 9.30036341 0.61197323 C6.92857568 0.5998444 4.55813637 0.61224733 2.18641949 0.63085651 C0.20883197 0.63183063 0.20883197 0.63183063 -1.80870682 0.63282442 C-6.95567029 1.36331698 -9.95148763 3.81935598 -13.65398788 7.32172108 Z " fill="#87AFDE" transform="translate(427.3414878845215,706.8657789230347)"/>
<path d="M0 0 C1.02908237 0.10607144 1.02908237 0.10607144 2.07895428 0.21428573 C10.57365254 1.01408246 19.0054114 1.14101436 27.53196716 1.12698364 C29.07318647 1.128138 30.61440551 1.12972763 32.15562397 1.13171089 C36.36025173 1.13586064 40.5648566 1.13383336 44.7694844 1.13072467 C49.31542541 1.1284531 53.86136261 1.13195882 58.40730286 1.13470459 C67.29878998 1.13914174 76.19026865 1.13819518 85.08175611 1.13529195 C92.30635173 1.13303084 99.53094498 1.13272846 106.75554085 1.13381577 C107.78490574 1.133969 108.81427062 1.13412223 109.87482839 1.13428011 C111.96606532 1.13459984 114.05730226 1.13492405 116.14853919 1.1352527 C135.73664878 1.13810121 155.32475367 1.13482981 174.91286249 1.12945233 C191.72405585 1.1249802 208.53524231 1.12576481 225.34643555 1.13037109 C244.87673893 1.13571992 264.40703821 1.13783149 283.93734223 1.13475883 C286.01861799 1.13444028 288.09989375 1.13412591 290.18116951 1.13381577 C291.20517512 1.13366149 292.22918072 1.13350721 293.2842168 1.13334826 C300.50456205 1.13248438 307.72490471 1.13394312 314.94524956 1.13629532 C323.73744096 1.13909671 332.52962344 1.13834765 341.32181381 1.13301457 C345.80848701 1.1303829 350.2951453 1.12936359 354.78181839 1.13266373 C358.88646648 1.1356373 362.9910858 1.13401608 367.09573127 1.12868617 C368.58266541 1.12756661 370.06960198 1.12814303 371.55653458 1.13056196 C373.5738943 1.1335928 375.59126081 1.12989293 377.60861874 1.12584114 C379.29108508 1.12559761 379.29108508 1.12559761 381.00754064 1.12534916 C383.7858881 1.00896879 386.29751084 0.63316583 389 0 C388 2 388 2 384.85286605 3.10909528 C381.19345144 3.9552679 378.09770314 4.2515849 374.35414314 4.25447559 C373.04993294 4.26030779 371.74572273 4.26613998 370.40199101 4.27214891 C368.96673417 4.26851622 367.5314778 4.26469188 366.09622192 4.26069641 C364.56216715 4.26371842 363.02811387 4.26760816 361.49406326 4.27228898 C357.28584274 4.28257132 353.0777074 4.28038655 348.86947989 4.27610838 C344.32813838 4.27364159 339.7868174 4.28265474 335.2454834 4.29014587 C326.35129538 4.30289621 317.45713754 4.30468615 308.56294192 4.30234561 C301.33349101 4.30056266 294.10404927 4.3023116 286.87459946 4.30657005 C285.84571201 4.30716524 284.81682457 4.30776043 283.75675871 4.30837366 C281.66657703 4.30958541 279.57639535 4.31079954 277.48621367 4.31201603 C257.88369459 4.32289287 238.28119271 4.3207284 218.67867266 4.31463119 C200.74703169 4.30946194 182.81544505 4.32071743 164.88381483 4.33972941 C146.46999255 4.35910291 128.05619597 4.36736466 109.64236343 4.36360615 C99.30505643 4.36169337 88.96779567 4.36418926 78.63049698 4.37832069 C69.83022599 4.39022923 61.03002969 4.39164529 52.22975768 4.37953053 C47.7405548 4.37363815 43.25148858 4.37255235 38.76229477 4.38453293 C34.65037582 4.39537905 30.53870786 4.39230354 26.42680071 4.37827124 C24.94166462 4.37562081 23.45650893 4.37800174 21.97139205 4.38600711 C13.99580382 4.42600446 7.40500494 4.07779847 0 1 C0 0.67 0 0.34 0 0 Z " fill="#D3E4F7" transform="translate(368,1067)"/>
<path d="M0 0 C0.33 0 0.66 0 1 0 C1 52.47 1 104.94 1 159 C-67.64 159 -136.28 159 -207 159 C-203.69345844 155.69345844 -202.78068744 155.65455953 -198.32578689 155.63892919 C-197.54855386 155.65155866 -196.77132083 155.66418813 -195.97053528 155.67720032 C-194.729374 155.67948073 -194.729374 155.67948073 -193.46313876 155.68180722 C-190.68064191 155.69060195 -187.89879565 155.72099476 -185.11645508 155.7512207 C-183.12589664 155.76192503 -181.13533068 155.77130295 -179.14476013 155.77944946 C-173.73173811 155.80537947 -168.31900856 155.84993542 -162.90614152 155.89774728 C-157.25273262 155.94454555 -151.59923525 155.97433703 -145.94572449 156.00590515 C-135.2359317 156.06830483 -124.52630749 156.14607778 -113.81665868 156.22932547 C-101.62584078 156.32334161 -89.43493407 156.40029357 -77.24398959 156.47578681 C-52.16251417 156.63148916 -27.0812274 156.80870344 -2 157 C-1.20708691 152.79912928 -0.86666383 148.81855969 -0.84178162 144.54592896 C-0.8319928 143.26714371 -0.82220398 141.98835846 -0.81211853 140.67082214 C-0.8062155 139.26638831 -0.80040498 137.86195409 -0.79467773 136.45751953 C-0.78509082 134.96896599 -0.77508027 133.48041513 -0.76467896 131.99186707 C-0.73771193 127.96137634 -0.71665812 123.93087401 -0.69667697 119.90034342 C-0.67476665 115.68426316 -0.64740271 111.46821836 -0.62062073 107.25216675 C-0.57076195 99.27316856 -0.52579791 91.29415062 -0.48259836 83.3151139 C-0.43316766 74.22927175 -0.3782712 65.14346518 -0.32291877 56.05765748 C-0.20920337 37.37180472 -0.1023417 18.68591834 0 0 Z " fill="#577EAF" transform="translate(746,910)"/>
<path d="M0 0 C0.73604184 -0.00380567 1.47208369 -0.00761134 2.23042983 -0.01153234 C4.72235592 -0.02192351 7.21405739 -0.01792821 9.70599937 -0.01409245 C11.50043918 -0.01854081 13.29487703 -0.02385351 15.08931196 -0.02996117 C20.04044953 -0.04420039 24.99152452 -0.04580334 29.94267964 -0.04536426 C35.27483064 -0.04700731 40.60695546 -0.06006433 45.93909264 -0.07155704 C57.6085603 -0.09444767 69.27800982 -0.10233226 80.94749689 -0.10738349 C88.23056021 -0.1106363 95.51361822 -0.11715631 102.79667854 -0.12438488 C122.95073909 -0.14395739 143.10479469 -0.16035735 163.25886536 -0.16326141 C164.54966112 -0.16344898 165.84045689 -0.16363655 167.17036768 -0.16382981 C169.78729208 -0.16419607 172.40421649 -0.16455976 175.02114089 -0.16492092 C176.9697871 -0.16519514 176.9697871 -0.16519514 178.95779991 -0.16547489 C180.25847847 -0.16565544 181.55915702 -0.16583599 182.89925008 -0.16602201 C203.97464052 -0.16956358 225.04992879 -0.19658199 246.12528379 -0.23397278 C267.74930853 -0.27203071 289.37328253 -0.29141871 310.99734151 -0.29172093 C323.14392704 -0.29230612 335.29039074 -0.30083793 347.43694496 -0.32971859 C357.78071888 -0.35419903 368.12432657 -0.36153803 378.4681216 -0.34647106 C383.74709285 -0.3392881 389.02573564 -0.34021933 394.30467033 -0.36288166 C399.13727632 -0.38342928 403.96930044 -0.38091065 408.80189984 -0.36000682 C410.55029278 -0.3565038 412.29872735 -0.36145619 414.04706569 -0.37571125 C430.3350518 -0.49995669 430.3350518 -0.49995669 436.96707726 5.26006222 C436.96707726 5.59006222 436.96707726 5.92006222 436.96707726 6.26006222 C434.21707726 6.51006222 434.21707726 6.51006222 430.96707726 6.26006222 C430.39063666 5.60505741 429.81419606 4.95005261 429.22028756 4.27519917 C426.16842795 1.5457979 423.56380665 1.70841925 419.66571236 1.7678709 C418.92496605 1.76325553 418.18421975 1.75864015 417.42102659 1.75388491 C414.92493121 1.7432498 412.42985635 1.76127952 409.9338131 1.77904415 C408.13194545 1.77730071 406.33007879 1.77379998 404.52821755 1.76868749 C399.56603965 1.75971904 394.60420535 1.77577679 389.64207125 1.79579973 C384.29512492 1.81303346 378.94819881 1.80723092 373.60123253 1.80419064 C364.33368634 1.80209069 355.06625257 1.81466726 345.79873466 1.83714199 C332.399389 1.86961575 319.00009785 1.88006427 305.6007171 1.88509396 C283.86245475 1.89385387 262.12425235 1.92048835 240.38602257 1.95830441 C219.26623396 1.99500647 198.14646162 2.02332707 177.02664757 2.04033566 C175.72536839 2.04138655 174.42408921 2.04243744 173.08337733 2.04352018 C166.5554049 2.04874024 160.02743236 2.05379509 153.49945974 2.0587678 C99.3219575 2.10025152 45.14452024 2.17071891 -9.03292274 2.26006222 C-6.13672338 -0.63613715 -4.05851526 0.00600124 0 0 Z " fill="#E0F5FE" transform="translate(429.032922744751,707.7399377822876)"/>
<path d="M0 0 C0.74185561 -0.00521457 1.48371121 -0.01042914 2.24804729 -0.01580173 C4.73590123 -0.02840266 7.22274549 -0.01247719 9.71056938 0.00330162 C11.51131371 0.00012517 13.31205565 -0.0048023 15.11279094 -0.0113312 C20.06271462 -0.02416806 25.01231153 -0.01201464 29.96221375 0.00419736 C35.29966868 0.01734433 40.63708687 0.00745599 45.97454643 0.00043297 C56.4306905 -0.0096553 66.88670815 0.00163725 77.34283651 0.02013357 C89.51240018 0.04088828 101.68193641 0.04076156 113.85151444 0.03978841 C135.55967626 0.0387869 157.26777917 0.05711816 178.97591972 0.08615685 C200.05470668 0.11433917 221.13344179 0.12849811 242.21224785 0.12717247 C243.51073997 0.12709256 244.80923209 0.12701265 246.14707245 0.12693031 C247.44329009 0.1268496 248.73950773 0.12676889 250.0750047 0.12668574 C274.05380849 0.12530704 298.0325902 0.1370796 322.01138685 0.15499217 C330.5005125 0.16103173 338.98963411 0.1631521 347.47876167 0.16405678 C357.81813057 0.16541924 368.15746225 0.17432351 378.49681534 0.1927224 C383.77521013 0.20197356 389.05355723 0.20804379 394.33196068 0.20553398 C399.15910967 0.20334998 403.98615302 0.21034329 408.81327997 0.22483103 C410.56416587 0.22846871 412.31506263 0.22870761 414.06594898 0.22529645 C416.43712858 0.22118663 418.80795859 0.22925869 421.17910767 0.24050903 C422.49880086 0.24191788 423.81849406 0.24332673 425.17817795 0.24477828 C428.22762168 0.47959796 429.9182327 0.87640765 432.46371269 2.49777794 C429.45339526 3.43201438 428.59721002 3.54227705 425.46371269 2.49777794 C423.10411191 2.4015243 420.74180444 2.36860607 418.38024235 2.36635017 C417.65088934 2.36429754 416.92153632 2.36224491 416.1700817 2.36013007 C413.70700347 2.35444048 411.24398082 2.35591973 408.78089714 2.35733604 C407.00479452 2.35475353 405.22869247 2.3517407 403.45259124 2.34833264 C398.55687175 2.34024605 393.66116691 2.33847215 388.76544154 2.33773518 C383.4912976 2.33588751 378.21716131 2.32834167 372.94302177 2.32159996 C361.4039094 2.30800461 349.8648005 2.30199013 338.32568145 2.2975893 C331.1245426 2.29482906 323.92340509 2.29059213 316.72226715 2.28608513 C296.79548762 2.27389119 276.86870918 2.26359193 256.941926 2.26021004 C255.66600029 2.25999047 254.39007457 2.25977091 253.07548444 2.25954469 C251.79645892 2.25932641 250.51743339 2.25910813 249.19964951 2.25888324 C246.60773893 2.25843977 244.01582835 2.2579932 241.42391777 2.25754356 C240.13823317 2.25732213 238.85254857 2.2571007 237.52790383 2.25687256 C216.68728377 2.25292312 195.84669865 2.2354652 175.00609209 2.21218404 C153.62387211 2.18849007 132.24166967 2.17600909 110.85943633 2.17484212 C98.84821821 2.17392429 86.83704561 2.16814481 74.82584 2.15002251 C64.5995437 2.13464792 54.373307 2.12948543 44.14700135 2.13776061 C38.92708043 2.14167641 33.70727961 2.14069224 28.48737335 2.12670326 C23.71116707 2.11402012 18.9351718 2.11511247 14.15896604 2.12729397 C12.42881036 2.12926069 10.69864002 2.12612786 8.96850499 2.11744961 C6.62031426 2.10641463 4.27287584 2.11380406 1.92470646 2.12584114 C-0.03335028 2.12494551 -0.03335028 2.12494551 -2.03096372 2.12403178 C-6.79664399 2.63216024 -10.1448039 4.10629453 -13.53628731 7.49777794 C-13.53628731 6.50777794 -13.53628731 5.51777794 -13.53628731 4.49777794 C-9.17159353 0.77613146 -5.57263233 -0.08112007 0 0 Z " fill="#E3F9FE" transform="translate(429.53628730773926,375.5022220611572)"/>
<path d="M0 0 C0 0.99 0 1.98 0 3 C-3.9937968 6.26531662 -7.36834692 6.36948149 -12.40879536 6.35352612 C-13.14900713 6.35529927 -13.88921891 6.35707243 -14.65186134 6.35889933 C-17.13999639 6.36117057 -19.62749876 6.34190581 -22.11555481 6.32279968 C-23.91415669 6.31997787 -25.71276105 6.31847932 -27.51136512 6.31819278 C-32.45985763 6.31356282 -37.40811124 6.29011257 -42.35652864 6.26365387 C-47.69048058 6.23840829 -53.02446107 6.23052428 -58.35845947 6.22055054 C-67.6019812 6.20088149 -76.84541362 6.17016948 -86.08887672 6.13199425 C-99.45342594 6.07681496 -112.81798234 6.03823219 -126.18259903 6.003723 C-147.86485998 5.94728481 -169.54705591 5.87739151 -191.22924805 5.79907227 C-212.29368323 5.72301319 -233.35812368 5.65326885 -254.42260742 5.59204102 C-255.72063688 5.58826585 -257.01866634 5.58449068 -258.35603002 5.58060112 C-264.86774755 5.56170159 -271.37946543 5.54292646 -277.8911835 5.52421319 C-331.92752356 5.36876344 -385.96377647 5.19149237 -440 5 C-440 4.67 -440 4.34 -440 4 C-439.08394749 3.99902319 -438.16789498 3.99804638 -437.2240833 3.99703997 C-382.96245452 3.93880061 -328.70086588 3.86502864 -274.43928667 3.77101372 C-267.92778636 3.75974521 -261.41628583 3.74860681 -254.90478516 3.73754883 C-253.60843221 3.73534514 -252.31207926 3.73314146 -250.97644289 3.730871 C-229.97075808 3.69547371 -208.96507331 3.67062331 -187.9593697 3.64965298 C-166.41450038 3.6279103 -144.86966985 3.59487448 -123.32483351 3.55129844 C-110.02457377 3.52475532 -96.72436239 3.50707955 -83.42407747 3.50065396 C-74.31046009 3.49540822 -65.19690363 3.47921867 -56.08331887 3.45433434 C-50.8209034 3.44029145 -45.55859704 3.43115893 -40.29616165 3.43499184 C-35.48095356 3.43839275 -30.66597885 3.42809108 -25.85081859 3.40676448 C-24.10645143 3.40148 -22.36206014 3.40127899 -20.61769311 3.40660437 C-18.25025746 3.41309716 -15.88359682 3.40124337 -13.51622581 3.38476086 C-12.20011515 3.38286225 -10.88400449 3.38096365 -9.52801168 3.37900752 C-5.7340481 2.9714293 -3.27490916 1.91033975 0 0 Z " fill="#96BCE7" transform="translate(864,568)"/>
<path d="M0 0 C0 3.76635487 -1.15209685 5.03103359 -3.25 8.125 C-6.06368574 12.39952864 -8.30505109 16.5630711 -10.17578125 21.3203125 C-11 23 -11 23 -13 24 C-13.33 23.01 -13.66 22.02 -14 21 C-16.47739354 20.09162237 -18.33579484 20 -21 20 C-16.43826336 15.32907285 -11.78232678 10.86643388 -6.83203125 6.609375 C-4.43948191 4.50760458 -2.21633026 2.28559058 0 0 Z " fill="#4174B5" transform="translate(763,864)"/>
<path d="M0 0 C-0.8353125 0.37125 -0.8353125 0.37125 -1.6875 0.75 C-6.86780311 3.55016385 -9.92106402 6.41969817 -12 12 C-12.65338059 17.04036458 -11.64910359 20.5754173 -9.65625 25.10546875 C-6.2098387 29.04770809 -2.07447447 30.71667117 2.99414062 31.40893555 C6.33352611 31.61451709 9.65465849 31.70784793 13 31.75 C14.15628906 31.77964844 15.31257813 31.80929687 16.50390625 31.83984375 C19.33600562 31.91006109 22.16730473 31.96299632 25 32 C25 32.33 25 32.66 25 33 C20.85440907 33.11727273 16.70925138 33.18760933 12.5625 33.25 C10.81549805 33.30027344 10.81549805 33.30027344 9.03320312 33.3515625 C0.44596806 33.44832008 -6.04883563 32.59859894 -12.5390625 26.6875 C-14.40098 23.26236833 -14.46704147 20.88247657 -14.375 17 C-14.36210937 15.80375 -14.34921875 14.6075 -14.3359375 13.375 C-14.0178866 10.17969793 -13.3653623 7.88364518 -12 5 C-11.34 5 -10.68 5 -10 5 C-10 4.34 -10 3.68 -10 3 C-6.58168085 0.4606772 -4.24223102 -0.3636198 0 0 Z " fill="#83B0E2" transform="translate(424,541)"/>
<path d="M0 0 C15.56668668 1.1530879 26.33762106 10.4467747 38 20 C37.01 20.33 36.02 20.66 35 21 C34.46375 20.401875 33.9275 19.80375 33.375 19.1875 C31.04803438 16.83604554 31.04803438 16.83604554 27.8125 15.4375 C25 14 25 14 24 11 C22.17012476 10.42728558 22.17012476 10.42728558 20 10 C18.39409285 9.18907006 16.81058994 8.33254423 15.25 7.4375 C14.05117188 6.75494141 14.05117188 6.75494141 12.828125 6.05859375 C12.22484375 5.70925781 11.6215625 5.35992187 11 5 C11 4.34 11 3.68 11 3 C9.9275 3.04125 8.855 3.0825 7.75 3.125 C4.34252515 3.0114175 2.79260369 2.78726636 0 1 C0 0.67 0 0.34 0 0 Z " fill="#91B8E7" transform="translate(912,214)"/>
<path d="M0 0 C0.99 0 1.98 0 3 0 C2.67 1.32 2.34 2.64 2 4 C0.35 4.33 -1.3 4.66 -3 5 C-3.33 5.99 -3.66 6.98 -4 8 C-4.66 8 -5.32 8 -6 8 C-6.1546875 8.8971875 -6.1546875 8.8971875 -6.3125 9.8125 C-7.10503854 12.33421352 -7.91591409 13.39685699 -10 15 C-10.99 15 -11.98 15 -13 15 C-13.2475 15.804375 -13.495 16.60875 -13.75 17.4375 C-15 20 -15 20 -17.125 20.8125 C-17.74375 20.874375 -18.3625 20.93625 -19 21 C-18.505 19.515 -18.505 19.515 -18 18 C-17.34 18 -16.68 18 -16 18 C-15.76152344 17.27425781 -15.52304687 16.54851562 -15.27734375 15.80078125 C-13.80925996 12.58177184 -12.07039876 10.6706904 -9.5625 8.1875 C-8.78003906 7.39730469 -7.99757813 6.60710937 -7.19140625 5.79296875 C-5 4 -5 4 -2 4 C-2 3.34 -2 2.68 -2 2 C-1.34 2 -0.68 2 0 2 C0 1.34 0 0.68 0 0 Z " fill="#8CB6EC" transform="translate(340,225)"/>
<path d="M0 0 C3 1 3 1 4.16796875 2.78515625 C7.24869294 9.66662062 7.56283069 14.24779542 6.4375 21.75 C4.77691632 25.50436311 3.47476365 26.58777367 -0.11328125 28.35546875 C-2.79924981 29.27303565 -5.1970477 29.27345876 -8 29 C-5 27 -5 27 -2.5 25.625 C1.1220321 23.27067913 2.64261192 21.07216423 4 17 C4.54478065 10.46263221 3.51088365 7.4857557 0 2 C0 1.34 0 0.68 0 0 Z " fill="#85B1E2" transform="translate(864,378)"/>
<path d="M0 0 C0.66 0.33 1.32 0.66 2 1 C0.625 3 0.625 3 -1 5 C-1.66 5 -2.32 5 -3 5 C-3 5.66 -3 6.32 -3 7 C-3.99 7.495 -3.99 7.495 -5 8 C-5.33 8.99 -5.66 9.98 -6 11 C-7.671875 12.4296875 -7.671875 12.4296875 -9.75 13.875 C-13.16631486 16.33523387 -16.05800296 18.97848953 -19 22 C-20.64864545 23.35555293 -22.31003995 24.69631653 -24 26 C-23.42380903 22.43235179 -22.13030516 20.74840503 -19.5625 18.25 C-18.94503906 17.63640625 -18.32757812 17.0228125 -17.69140625 16.390625 C-16 15 -16 15 -14 15 C-14 14.01 -14 13.02 -14 12 C-13.25105469 11.76410156 -12.50210938 11.52820313 -11.73046875 11.28515625 C-8.54241844 9.78462899 -7.34452463 8.28233448 -5.3125 5.4375 C-2.17271589 1.08635795 -2.17271589 1.08635795 0 0 Z " fill="#C0D3EF" transform="translate(808,1012)"/>
<path d="M0 0 C2.64 0 5.28 0 8 0 C8.103125 0.639375 8.20625 1.27875 8.3125 1.9375 C8.6528125 2.9584375 8.6528125 2.9584375 9 4 C9.99 4.33 10.98 4.66 12 5 C14.37628932 8.34733113 14.23804882 11.492857 14.1875 15.5 C14.17783203 17.18609375 14.17783203 17.18609375 14.16796875 18.90625 C14.0295553 21.45563254 13.74334614 23.5737182 13 26 C11.68 26.33 10.36 26.66 9 27 C9.495 26.030625 9.99 25.06125 10.5 24.0625 C12.3493633 19.69127765 12.74414271 15.68724372 12 11 C9.40336502 5.26576442 5.5703305 3.29843734 0 1 C0 0.67 0 0.34 0 0 Z " fill="#86B2E0" transform="translate(856,541)"/>
<path d="M0 0 C0 0.33 0 0.66 0 1 C-1.03898438 1.23074219 -2.07796875 1.46148438 -3.1484375 1.69921875 C-10.64699326 3.43145442 -17.37559842 5.2083977 -24.08203125 9.14453125 C-26 10 -26 10 -29 9 C-27.51212942 6.02425884 -25.10740855 5.84163901 -22.12109375 4.79296875 C-19.78497427 3.96855099 -19.78497427 3.96855099 -16.875 2.375 C-11.36796333 -0.25880015 -5.97601047 -0.10303466 0 0 Z " fill="#7CAFEC" transform="translate(812,836)"/>
<path d="M0 0 C-2.40244437 5.3729544 -6.46735972 9.61307794 -11.625 12.4375 C-14.16716727 13.03959225 -16.39652824 13.14876981 -19 13 C-19 11.35 -19 9.7 -19 8 C-18.67 9.32 -18.34 10.64 -18 12 C-12.77228015 10.08987159 -10.35081737 8.59186084 -7 4 C-6.34 4 -5.68 4 -5 4 C-4.67 3.01 -4.34 2.02 -4 1 C-2 0 -2 0 0 0 Z " fill="#B9CDE9" transform="translate(766,1056)"/>
<path d="M0 0 C-4.28042562 2.18800913 -8.53547621 4.21419048 -13 6 C-15.08605893 7.08151016 -17.1638571 8.17470661 -19.23046875 9.29296875 C-19.81441406 9.52628906 -20.39835937 9.75960937 -21 10 C-21.66 9.67 -22.32 9.34 -23 9 C-19.82676019 5.54714471 -16.30241718 4.09476253 -12.0625 2.25 C-11.34642578 1.92128906 -10.63035156 1.59257812 -9.89257812 1.25390625 C-9.19712891 0.94839844 -8.50167969 0.64289063 -7.78515625 0.328125 C-7.15488525 0.0487207 -6.52461426 -0.23068359 -5.87524414 -0.51855469 C-3.59636292 -1.10362874 -2.20754781 -0.7298386 0 0 Z " fill="#94BCE9" transform="translate(366,215)"/>
<path d="M0 0 C3.09225158 2.95780586 4.18042216 4.8293201 4.375 9.125 C4.34140114 14.30762408 2.45275574 18.1601171 -1 22 C-1.66 22 -2.32 22 -3 22 C-1.14876033 17.23966942 -1.14876033 17.23966942 0.125 15.1875 C2.02916908 10.42707731 1.21851802 4.87407207 0 0 Z " fill="#D7EFFD" transform="translate(865,547)"/>
<path d="M0 0 C3.85481955 2.81441843 6.34005334 5.58866862 8.875 9.625 C9.49117187 10.58664063 10.10734375 11.54828125 10.7421875 12.5390625 C11.15726563 13.35117188 11.57234375 14.16328125 12 15 C11.67 15.66 11.34 16.32 11 17 C7.69176295 13.87058657 5.2868018 10.92023166 3 7 C2.34 6.67 1.68 6.34 1 6 C0.375 2.9375 0.375 2.9375 0 0 Z " fill="#8EB8E9" transform="translate(952,237)"/>
<path d="M0 0 C1 2 1 2 0.50390625 4.23046875 C-0.09683266 7.53220432 0.32296078 10.0229077 0.9375 13.3125 C1.13214844 14.38113281 1.32679688 15.44976562 1.52734375 16.55078125 C1.68332031 17.35902344 1.83929688 18.16726563 2 19 C-1.91929771 15.51442739 -2.72968866 13.35817094 -3.1171875 8.26171875 C-2.94849704 5.00599291 -1.73751122 2.71051751 0 0 Z " fill="#DDF1FB" transform="translate(414,382)"/>
<path d="M0 0 C6.75 1.875 6.75 1.875 9 3 C9.33 3.99 9.66 4.98 10 6 C10.825 6.33 11.65 6.66 12.5 7 C13.325 7.33 14.15 7.66 15 8 C15.33 8.99 15.66 9.98 16 11 C11.87321179 9.55901911 8.69813572 7.52700506 5.1875 4.9375 C4.21167969 4.22464844 3.23585938 3.51179688 2.23046875 2.77734375 C1.49441406 2.19082031 0.75835937 1.60429688 0 1 C0 0.67 0 0.34 0 0 Z " fill="#91B9E9" transform="translate(334,1049)"/>
<path d="M0 0 C6.99536447 0.82298405 11.8471499 5.58327134 17 10 C16.01 10.33 15.02 10.66 14 11 C13.46375 10.401875 12.9275 9.80375 12.375 9.1875 C10.04803438 6.83604554 10.04803438 6.83604554 6.8125 5.4375 C4 4 4 4 3 1 C2.01 0.67 1.02 0.34 0 0 Z " fill="#8DB6E9" transform="translate(933,224)"/>
<path d="M0 0 C0 3.67034745 -1.0752892 5.0999431 -3 8.1875 C-3.556875 9.08855469 -4.11375 9.98960937 -4.6875 10.91796875 C-5.120625 11.60503906 -5.55375 12.29210937 -6 13 C-7.65 12.67 -9.3 12.34 -11 12 C-7.49102731 7.81576108 -3.91939465 3.80411834 0 0 Z " fill="#507FB7" transform="translate(763,864)"/>
<path d="M0 0 C0.33 0 0.66 0 1 0 C1.42064893 6.09940955 1.08964656 9.13663653 -3 14 C-5.75 16.375 -5.75 16.375 -8 18 C-8.33 17.34 -8.66 16.68 -9 16 C-8.236875 15.2575 -7.47375 14.515 -6.6875 13.75 C-2.12822314 9.08469344 -0.6385812 6.64124445 0 0 Z " fill="#DBF1FD" transform="translate(868,720)"/>
<path d="M0 0 C3.17325358 2.62260075 4.28734555 5.64750421 5.75 9.4375 C6.19859375 10.57058594 6.6471875 11.70367187 7.109375 12.87109375 C7.9689772 15.89101199 8.14949552 17.14728855 7 20 C3.37172342 13.34261178 0.29455112 7.65832917 0 0 Z " fill="#8FB7E7" transform="translate(964,254)"/>
<path d="M0 0 C0.33 0.99 0.66 1.98 1 3 C0.16855469 3.68835938 0.16855469 3.68835938 -0.6796875 4.390625 C-1.76636719 5.31101562 -1.76636719 5.31101562 -2.875 6.25 C-3.59429688 6.85328125 -4.31359375 7.4565625 -5.0546875 8.078125 C-6.97052118 9.97087634 -7.96449045 11.53657727 -9 14 C-9.99 13.67 -10.98 13.34 -12 13 C-11.04956626 11.66102417 -10.08940853 10.32894573 -9.125 9 C-8.59132813 8.2575 -8.05765625 7.515 -7.5078125 6.75 C-7.01023437 6.1725 -6.51265625 5.595 -6 5 C-5.34 5 -4.68 5 -4 5 C-4 4.34 -4 3.68 -4 3 C-2 1.375 -2 1.375 0 0 Z " fill="#A8CEFC" transform="translate(777,851)"/>
<path d="M0 0 C1.0507164 1.5760746 2.09817294 3.15466543 3.11328125 4.75390625 C5.64026066 8.56495338 7.36664761 10.80856653 12 12 C12 12.66 12 13.32 12 14 C6.99635967 12.71999898 4.43423522 10.82671924 1 7 C0.67 6.67 0.34 6.34 0 6 C-0.04080783 4.00041636 -0.04254356 1.99954746 0 0 Z " fill="#8CB4E2" transform="translate(411,394)"/>
<path d="M0 0 C8.415 3.96 8.415 3.96 17 8 C12.75066006 9.06233499 12.49304352 9.10348168 9 7.125 C6.33492353 5.63630494 3.99515767 4.62844826 1 4 C0.67 2.68 0.34 1.36 0 0 Z " fill="#E0F1FE" transform="translate(342,1056)"/>
<path d="M0 0 C-0.53109375 0.31453125 -1.0621875 0.6290625 -1.609375 0.953125 C-5.51541152 3.31955588 -8.93604926 5.55305542 -12 9 C-11.51219512 3.51219512 -11.51219512 3.51219512 -9.1875 1.1875 C-5.60662532 -0.7564034 -3.93443045 -1.31147682 0 0 Z " fill="#8AB1DF" transform="translate(424,376)"/>
<path d="M0 0 C0 0.99 0 1.98 0 3 C-4.06849728 6.78791126 -8.54514209 6.25039896 -13.76953125 6.10546875 C-14.50558594 6.07066406 -15.24164062 6.03585937 -16 6 C-16 5.67 -16 5.34 -16 5 C-15.34773437 4.89042969 -14.69546875 4.78085937 -14.0234375 4.66796875 C-8.8802377 3.73491038 -4.58100221 2.65215917 0 0 Z " fill="#86B1E6" transform="translate(864,568)"/>
<path d="M0 0 C0.33 0 0.66 0 1 0 C2.80304155 5.30094216 4.50723624 10.60308488 6 16 C2.911493 13.2203437 1.12324929 11.02497664 0 7 C-0.07646165 4.6679198 -0.09143299 2.33154122 0 0 Z " fill="#D0EAFA" transform="translate(411,553)"/>
<path d="M0 0 C0.33 0.66 0.66 1.32 1 2 C0.34 2 -0.32 2 -1 2 C-1.0825 2.5775 -1.165 3.155 -1.25 3.75 C-2.20531013 6.6159304 -3.78469173 7.9990764 -6 10 C-6.99 9.67 -7.98 9.34 -9 9 C-7.87895467 7.68412059 -6.75303035 6.37239647 -5.625 5.0625 C-4.99851562 4.33160156 -4.37203125 3.60070313 -3.7265625 2.84765625 C-2 1 -2 1 0 0 Z " fill="#E2ECFA" transform="translate(793,1029)"/>
<path d="M0 0 C0.66 0.99 1.32 1.98 2 3 C1.01 3.33 0.02 3.66 -1 4 C-1 7.3 -1 10.6 -1 14 C-3 12 -3 12 -3.3125 8.6875 C-2.98867205 4.86633018 -2.22414284 3.05819641 0 0 Z " fill="#E3F5FC" transform="translate(415,546)"/>
<path d="M0 0 C0.66 0 1.32 0 2 0 C3.4375 2.08203125 3.4375 2.08203125 5 4.8125 C6.60978272 7.60144856 8.21271876 10.31907813 10 13 C9.01 13 8.02 13 7 13 C5.17578125 10.41015625 5.17578125 10.41015625 3.3125 7.0625 C2.37857422 5.40927734 2.37857422 5.40927734 1.42578125 3.72265625 C0 1 0 1 0 0 Z " fill="#8BB3E6" transform="translate(315,1024)"/>
<path d="M0 0 C0.99 0.33 1.98 0.66 3 1 C0.36 3.97 -2.28 6.94 -5 10 C-5.33 9.01 -5.66 8.02 -6 7 C-4.78515625 5.17578125 -4.78515625 5.17578125 -3.0625 3.3125 C-2.49660156 2.68988281 -1.93070313 2.06726563 -1.34765625 1.42578125 C-0.90292969 0.95527344 -0.45820312 0.48476563 0 0 Z " fill="#C1D3EE" transform="translate(827,992)"/>
<path d="M0 0 C0.66 0.33 1.32 0.66 2 1 C1.01 3.97 0.02 6.94 -1 10 C-1.33 10 -1.66 10 -2 10 C-1.979375 9.071875 -1.95875 8.14375 -1.9375 7.1875 C-1.84230396 3.97713989 -1.84230396 3.97713989 -3 1 C-2.01 0.67 -1.02 0.34 0 0 Z " fill="#4570A9" transform="translate(754,875)"/>
<path d="M0 0 C0.33 0.66 0.66 1.32 1 2 C0.01 2.495 0.01 2.495 -1 3 C-2.01866229 4.65532623 -3.01810813 6.32260138 -4 8 C-4.66 8.66 -5.32 9.32 -6 10 C-6.99 9.67 -7.98 9.34 -9 9 C-7.87895467 7.68412059 -6.75303035 6.37239647 -5.625 5.0625 C-4.99851562 4.33160156 -4.37203125 3.60070312 -3.7265625 2.84765625 C-2 1 -2 1 0 0 Z " fill="#E0EBFA" transform="translate(945,877)"/>
<path d="M0 0 C-1.11666174 3.34998521 -1.74694925 3.79340222 -4.5625 5.6875 C-5.20316406 6.12449219 -5.84382812 6.56148437 -6.50390625 7.01171875 C-6.99761719 7.33785156 -7.49132812 7.66398438 -8 8 C-7.40137646 4.79837298 -7.08735442 4.08063485 -4.5625 1.75 C-2 0 -2 0 0 0 Z " fill="#C0D3EE" transform="translate(920,902)"/>
<path d="M0 0 C0.66 0.33 1.32 0.66 2 1 C0.28032649 4.02990095 -1.29238306 6.76327296 -4 9 C-4.66 9 -5.32 9 -6 9 C-4.47291037 5.56404834 -2.40072955 2.88087546 0 0 Z " fill="#E5EEFA" transform="translate(934,887)"/>
<path d="M0 0 C0.66 0.33 1.32 0.66 2 1 C-0.97 4.96 -0.97 4.96 -4 9 C-4.66 8.67 -5.32 8.34 -6 8 C-4.55746343 4.63408134 -2.66735273 2.48952921 0 0 Z " fill="#7CAEE9" transform="translate(769,856)"/>
<path d="M0 0 C2.97 0 5.94 0 9 0 C9.33 1.32 9.66 2.64 10 4 C6.7 3.01 3.4 2.02 0 1 C0 0.67 0 0.34 0 0 Z " fill="#93B9E7" transform="translate(354,1062)"/>
<path d="M0 0 C0 3 0 3 -2.375 5.6875 C-5 8 -5 8 -7 8 C-5.50902342 4.2047869 -3.24299151 2.38957269 0 0 Z " fill="#E8F1FC" transform="translate(839,984)"/>
<path d="M0 0 C0 3 0 3 -2.375 5.6875 C-5 8 -5 8 -7 8 C-5.50902342 4.2047869 -3.24299151 2.38957269 0 0 Z " fill="#E6F0FD" transform="translate(855,968)"/>
<path d="M0 0 C0.33 0.99 0.66 1.98 1 3 C-0.9375 6.1875 -0.9375 6.1875 -3 9 C-3.99 8.67 -4.98 8.34 -6 8 C-5.67 7.34 -5.34 6.68 -5 6 C-4.34 6 -3.68 6 -3 6 C-2.690625 5.195625 -2.38125 4.39125 -2.0625 3.5625 C-1 1 -1 1 0 0 Z " fill="#8DB7E6" transform="translate(327,237)"/>
<path d="M0 0 C-1.29299694 2.88437779 -2.65941363 4.87219421 -5 7 C-5.99 6.67 -6.98 6.34 -8 6 C-7.0479279 4.99403703 -6.08812654 3.99538437 -5.125 3 C-4.59132813 2.443125 -4.05765625 1.88625 -3.5078125 1.3125 C-2 0 -2 0 0 0 Z " fill="#E5F0FC" transform="translate(848,976)"/>
<path d="M0 0 C0 4.24645065 -1.81750806 6.38524772 -4 10 C-4.6875 8.3125 -4.6875 8.3125 -5 6 C-2.73846154 1.36923077 -2.73846154 1.36923077 0 0 Z " fill="#E3F3FE" transform="translate(319,246)"/>
<path d="M0 0 C4.03321763 1.21934486 7.54269479 2.55954927 11 5 C11 5.66 11 6.32 11 7 C6.89188572 5.55007731 3.53144334 3.54592427 0 1 C0 0.67 0 0.34 0 0 Z " fill="#CCE4FA" transform="translate(931,220)"/>
<path d="M0 0 C0 3 0 3 -2 5.1875 C-2.66 5.785625 -3.32 6.38375 -4 7 C-4.99 6.67 -5.98 6.34 -7 6 C-4.69 4.02 -2.38 2.04 0 0 Z " fill="#E6F1FB" transform="translate(919,904)"/>
<path d="M0 0 C-1.28519565 2.86697492 -2.57129254 4.97607712 -5 7 C-5.66 7 -6.32 7 -7 7 C-3.86206897 0 -3.86206897 0 0 0 Z " fill="#BCD0ED" transform="translate(934,887)"/>
<path d="M0 0 C1.36125 0.12375 1.36125 0.12375 2.75 0.25 C-0.45336822 3.08374881 -3.03087253 3.7705537 -7.25 4.25 C-4.83923194 1.28290085 -3.90322061 0.30024774 0 0 Z " fill="#DCF1FC" transform="translate(423.25,541.75)"/>
<path d="M0 0 C4.31392226 0.4793247 6.16569547 1.7457985 9 5 C8.01 5.495 8.01 5.495 7 6 C5 4.625 5 4.625 3 3 C3 2.34 3 1.68 3 1 C2.01 0.67 1.02 0.34 0 0 Z " fill="#7FADE7" transform="translate(933,224)"/>
<path d="M0 0 C0.33 0.99 0.66 1.98 1 3 C-0.32 4.32 -1.64 5.64 -3 7 C-3.99 6.67 -4.98 6.34 -6 6 C-4.02 4.02 -2.04 2.04 0 0 Z " fill="#E5EFFC" transform="translate(830,992)"/>
<path d="M0 0 C0.66 0.33 1.32 0.66 2 1 C1.67 1.66 1.34 2.32 1 3 C0.34 3 -0.32 3 -1 3 C-1.33 3.99 -1.66 4.98 -2 6 C-2.66 6 -3.32 6 -4 6 C-3.67 4.35 -3.34 2.7 -3 1 C-2.01 0.67 -1.02 0.34 0 0 Z " fill="#CDDCF2" transform="translate(894,927)"/>
<path d="M0 0 C1.32 0.33 2.64 0.66 4 1 C0.535 3.97 0.535 3.97 -3 7 C-1.125 1.125 -1.125 1.125 0 0 Z " fill="#BDD1ED" transform="translate(938,880)"/>
<path d="M0 0 C0.33 0 0.66 0 1 0 C1.27599507 1.76696843 1.51996915 3.53896215 1.75 5.3125 C1.88921875 6.29863281 2.0284375 7.28476562 2.171875 8.30078125 C2.11515625 9.19152344 2.0584375 10.08226562 2 11 C0.68 11.99 -0.64 12.98 -2 14 C-1.34 9.38 -0.68 4.76 0 0 Z " fill="#77AEEC" transform="translate(870,720)"/>
<path d="M0 0 C0.33 0 0.66 0 1 0 C1.125 5.75 1.125 5.75 0 8 C-0.99 8 -1.98 8 -3 8 C-1.125 2.25 -1.125 2.25 0 0 Z " fill="#96BCEC" transform="translate(314,256)"/>
<path d="M0 0 C0.6875 1.75 0.6875 1.75 1 4 C-0.3125 6.25 -0.3125 6.25 -2 8 C-2.66 8 -3.32 8 -4 8 C-2.25 2.25 -2.25 2.25 0 0 Z " fill="#96BBE8" transform="translate(319,248)"/>
<path d="M0 0 C0 3 0 3 -2.5 5.6875 C-3.325 6.450625 -4.15 7.21375 -5 8 C-5 6.68 -5 5.36 -5 4 C-2.5 1.75 -2.5 1.75 0 0 Z " fill="#C1D3EE" transform="translate(773,1047)"/>
<path d="M0 0 C-1.39332574 3.36720387 -2.9789286 4.9859524 -6 7 C-6.66 6.67 -7.32 6.34 -8 6 C-7.0479279 4.99403703 -6.08812654 3.99538437 -5.125 3 C-4.59132813 2.443125 -4.05765625 1.88625 -3.5078125 1.3125 C-2 0 -2 0 0 0 Z " fill="#E3EEFC" transform="translate(816,1008)"/>
<path d="M0 0 C0.33 0.66 0.66 1.32 1 2 C-0.32 3.65 -1.64 5.3 -3 7 C-3.99 6.67 -4.98 6.34 -6 6 C-4.02 4.02 -2.04 2.04 0 0 Z " fill="#E4EFFA" transform="translate(862,960)"/>
<path d="M0 0 C0 3.93169105 -1.39419615 5.16427228 -4 8 C-4.66 8 -5.32 8 -6 8 C-4.55746343 4.63408134 -2.66735273 2.48952921 0 0 Z " fill="#E1EDFB" transform="translate(966,856)"/>
<path d="M0 0 C0.33 0 0.66 0 1 0 C1.36923077 5.53846154 1.36923077 5.53846154 -0.5 7.875 C-1.2425 8.431875 -1.2425 8.431875 -2 9 C-3 6 -3 6 -1.5625 2.8125 C-1.046875 1.884375 -0.53125 0.95625 0 0 Z " fill="#C1D4ED" transform="translate(974,842)"/>
<path d="M0 0 C-3.3 1.32 -6.6 2.64 -10 4 C-10 3.34 -10 2.68 -10 2 C-9.34 2 -8.68 2 -8 2 C-8 1.34 -8 0.68 -8 0 C-4.71303767 -0.79953138 -3.28976808 -1.09658936 0 0 Z " fill="#DCECFD" transform="translate(362,215)"/>
</svg>
